<svg width="117" height="49" viewBox="0 0 117 49" fill="none" xmlns="http://www.w3.org/2000/svg">
<circle cx="24.5" cy="24.5" r="24.5" fill="#3B3B3B"/>
<path d="M35.5417 37C32.5556 37 29.6449 36.3343 26.8097 35.0028C23.9745 33.6713 21.463 31.912 19.275 29.725C17.087 27.538 15.3278 25.0264 13.9972 22.1903C12.6667 19.3542 12.0009 16.4435 12 13.4583C12 13.0417 12.1389 12.6944 12.4167 12.4167C12.6944 12.1389 13.0417 12 13.4583 12H19.0833C19.4074 12 19.6968 12.1042 19.9514 12.3125C20.206 12.5208 20.3565 12.787 20.4028 13.1111L21.3056 17.9722C21.3519 18.2963 21.3458 18.5917 21.2875 18.8583C21.2292 19.125 21.0963 19.362 20.8889 19.5694L17.5556 22.9722C18.5278 24.6389 19.7431 26.2014 21.2014 27.6597C22.6597 29.1181 24.2685 30.3796 26.0278 31.4444L29.2917 28.1806C29.5 27.9722 29.7722 27.8162 30.1083 27.7125C30.4444 27.6088 30.7741 27.5796 31.0972 27.625L35.8889 28.5972C36.213 28.6667 36.4792 28.8231 36.6875 29.0667C36.8958 29.3102 37 29.5935 37 29.9167V35.5417C37 35.9583 36.8611 36.3056 36.5833 36.5833C36.3056 36.8611 35.9583 37 35.5417 37Z" fill="white"/>
<circle cx="92.5" cy="24.5" r="24.5" fill="#3B3B3B"/>
<path d="M93 11C100.18 11 106 16.8201 106 24C106 31.1799 100.18 37 93 37C90.7026 37.0037 88.4457 36.3957 86.461 35.2385L80.0052 37L81.7628 30.5416C80.6046 28.5563 79.9962 26.2984 80 24C80 16.8201 85.8201 11 93 11ZM88.5696 17.89L88.3096 17.9004C88.1413 17.9106 87.9768 17.9549 87.826 18.0304C87.685 18.1103 87.5563 18.2101 87.4438 18.3268C87.2878 18.4737 87.1994 18.6011 87.1045 18.7246C86.6237 19.3498 86.3648 20.1173 86.3687 20.906C86.3713 21.543 86.5377 22.1631 86.7977 22.7429C87.3294 23.9155 88.2043 25.157 89.3587 26.3075C89.6369 26.5844 89.9099 26.8626 90.2037 27.1213C91.6381 28.3842 93.3474 29.2949 95.1957 29.7811L95.9341 29.8942C96.1746 29.9072 96.4151 29.889 96.6569 29.8773C97.0355 29.8577 97.4052 29.7552 97.7398 29.577C97.91 29.4893 98.0762 29.3939 98.2377 29.291C98.2377 29.291 98.2936 29.2546 98.4002 29.174C98.5757 29.044 98.6836 28.9517 98.8292 28.7996C98.9371 28.6878 99.0307 28.5565 99.1022 28.407C99.2036 28.1951 99.305 27.7908 99.3466 27.4541C99.3778 27.1967 99.3687 27.0563 99.3648 26.9692C99.3596 26.8301 99.2439 26.6858 99.1178 26.6247L98.3612 26.2854C98.3612 26.2854 97.2302 25.7927 96.5386 25.4781C96.4662 25.4465 96.3887 25.4284 96.3098 25.4248C96.2209 25.4157 96.131 25.4257 96.0462 25.4541C95.9615 25.4826 95.8838 25.5289 95.8184 25.5899C95.8119 25.5873 95.7248 25.6614 94.7849 26.8002C94.731 26.8727 94.6567 26.9275 94.5715 26.9576C94.4863 26.9877 94.394 26.9917 94.3065 26.9692C94.2218 26.9465 94.1388 26.9178 94.0582 26.8834C93.897 26.8158 93.8411 26.7898 93.7306 26.743C92.9845 26.4174 92.2937 25.9775 91.6831 25.4391C91.5193 25.2961 91.3672 25.1401 91.2112 24.9893C90.6998 24.4995 90.2541 23.9454 89.8852 23.3409L89.8085 23.2174C89.7534 23.1344 89.7089 23.0449 89.6759 22.9509C89.6265 22.7598 89.7552 22.6064 89.7552 22.6064C89.7552 22.6064 90.0711 22.2606 90.218 22.0734C90.361 21.8914 90.4819 21.7146 90.5599 21.5885C90.7133 21.3415 90.7614 21.088 90.6808 20.8917C90.3168 20.0025 89.9398 19.1172 89.5524 18.2384C89.4757 18.0642 89.2482 17.9394 89.0415 17.9147C88.9713 17.9069 88.9011 17.8991 88.8309 17.8939C88.6563 17.8852 88.4814 17.887 88.307 17.8991L88.5683 17.8887L88.5696 17.89Z" fill="white"/>
</svg>
