<svg width="49" height="219" viewBox="0 0 49 219" fill="none" xmlns="http://www.w3.org/2000/svg">
<circle cx="24.5" cy="24.5" r="24.5" fill="#3B3B3B"/>
<path d="M23.0006 10.7012C23.0752 10.4957 23.2112 10.3182 23.3902 10.1928C23.5692 10.0673 23.7825 10 24.0011 10C24.2196 10 24.4329 10.0673 24.6119 10.1928C24.7909 10.3182 24.9269 10.4957 25.0015 10.7012L26.019 13.4811C26.8159 15.661 28.0791 17.6407 29.7203 19.2818C31.3615 20.923 33.3411 22.1862 35.521 22.9832L38.2988 24.0006C38.5043 24.0752 38.6818 24.2112 38.8073 24.3902C38.9327 24.5692 39 24.7825 39 25.0011C39 25.2196 38.9327 25.4329 38.8073 25.6119C38.6818 25.7909 38.5043 25.9269 38.2988 26.0015L35.521 27.019C33.3411 27.8159 31.3615 29.0791 29.7203 30.7203C28.0791 32.3615 26.8159 34.3411 26.019 36.521L25.0015 39.2988C24.9269 39.5043 24.7909 39.6818 24.6119 39.8073C24.4329 39.9327 24.2196 40 24.0011 40C23.7825 40 23.5692 39.9327 23.3902 39.8073C23.2112 39.6818 23.0752 39.5043 23.0006 39.2988L21.9832 36.521C21.1862 34.3411 19.923 32.3615 18.2818 30.7203C16.6407 29.0791 14.661 27.8159 12.4811 27.019L9.70119 26.0015C9.49572 25.9269 9.3182 25.7909 9.19275 25.6119C9.0673 25.4329 9 25.2196 9 25.0011C9 24.7825 9.0673 24.5692 9.19275 24.3902C9.3182 24.2112 9.49572 24.0752 9.70119 24.0006L12.4811 22.9832C14.661 22.1862 16.6407 20.923 18.2818 19.2818C19.923 17.6407 21.1862 15.661 21.9832 13.4811L23.0006 10.7012Z" fill="white"/>
<circle cx="24.5" cy="109.5" r="24.5" fill="#3B3B3B"/>
<path d="M23.0006 95.7012C23.0752 95.4957 23.2112 95.3182 23.3902 95.1928C23.5692 95.0673 23.7825 95 24.0011 95C24.2196 95 24.4329 95.0673 24.6119 95.1928C24.7909 95.3182 24.9269 95.4957 25.0015 95.7012L26.019 98.4811C26.8159 100.661 28.0791 102.641 29.7203 104.282C31.3615 105.923 33.3411 107.186 35.521 107.983L38.2988 109.001C38.5043 109.075 38.6818 109.211 38.8073 109.39C38.9327 109.569 39 109.782 39 110.001C39 110.22 38.9327 110.433 38.8073 110.612C38.6818 110.791 38.5043 110.927 38.2988 111.002L35.521 112.019C33.3411 112.816 31.3615 114.079 29.7203 115.72C28.0791 117.361 26.8159 119.341 26.019 121.521L25.0015 124.299C24.9269 124.504 24.7909 124.682 24.6119 124.807C24.4329 124.933 24.2196 125 24.0011 125C23.7825 125 23.5692 124.933 23.3902 124.807C23.2112 124.682 23.0752 124.504 23.0006 124.299L21.9832 121.521C21.1862 119.341 19.923 117.361 18.2818 115.72C16.6407 114.079 14.661 112.816 12.4811 112.019L9.70119 111.002C9.49572 110.927 9.3182 110.791 9.19275 110.612C9.0673 110.433 9 110.22 9 110.001C9 109.782 9.0673 109.569 9.19275 109.39C9.3182 109.211 9.49572 109.075 9.70119 109.001L12.4811 107.983C14.661 107.186 16.6407 105.923 18.2818 104.282C19.923 102.641 21.1862 100.661 21.9832 98.4811L23.0006 95.7012Z" fill="white"/>
<circle cx="24.5" cy="194.5" r="24.5" fill="#3B3B3B"/>
<path d="M23.0006 180.701C23.0752 180.496 23.2112 180.318 23.3902 180.193C23.5692 180.067 23.7825 180 24.0011 180C24.2196 180 24.4329 180.067 24.6119 180.193C24.7909 180.318 24.9269 180.496 25.0015 180.701L26.019 183.481C26.8159 185.661 28.0791 187.641 29.7203 189.282C31.3615 190.923 33.3411 192.186 35.521 192.983L38.2988 194.001C38.5043 194.075 38.6818 194.211 38.8073 194.39C38.9327 194.569 39 194.782 39 195.001C39 195.22 38.9327 195.433 38.8073 195.612C38.6818 195.791 38.5043 195.927 38.2988 196.002L35.521 197.019C33.3411 197.816 31.3615 199.079 29.7203 200.72C28.0791 202.361 26.8159 204.341 26.019 206.521L25.0015 209.299C24.9269 209.504 24.7909 209.682 24.6119 209.807C24.4329 209.933 24.2196 210 24.0011 210C23.7825 210 23.5692 209.933 23.3902 209.807C23.2112 209.682 23.0752 209.504 23.0006 209.299L21.9832 206.521C21.1862 204.341 19.923 202.361 18.2818 200.72C16.6407 199.079 14.661 197.816 12.4811 197.019L9.70119 196.002C9.49572 195.927 9.3182 195.791 9.19275 195.612C9.0673 195.433 9 195.22 9 195.001C9 194.782 9.0673 194.569 9.19275 194.39C9.3182 194.211 9.49572 194.075 9.70119 194.001L12.4811 192.983C14.661 192.186 16.6407 190.923 18.2818 189.282C19.923 187.641 21.1862 185.661 21.9832 183.481L23.0006 180.701Z" fill="white"/>
</svg>
