<svg width="29" height="188" viewBox="0 0 29 188" fill="none" xmlns="http://www.w3.org/2000/svg">
<path d="M15.7683 33.8241L-6.10352e-05 18.0557V21.277C-6.10352e-05 22.1306 0.338178 22.9521 0.95023 23.548L13.4973 36.0951C14.7536 37.3514 16.7992 37.3514 18.0555 36.0951L28.0577 26.0929C29.314 24.8366 29.314 22.791 28.0577 21.5347L15.7683 33.8241Z" fill="#FF8F28"/>
<path d="M13.4973 28.0417C14.1255 28.6698 14.9469 28.9919 15.7683 28.9919C16.5898 28.9919 17.4112 28.6698 18.0394 28.0417L28.0416 18.0394C29.2979 16.7831 29.2979 14.7376 28.0416 13.4813L15.4945 0.934185C14.8986 0.338239 14.0771 0 13.2235 0H3.22127C1.44954 0 -6.10352e-05 1.4496 -6.10352e-05 3.22133V13.2235C-6.10352e-05 14.0772 0.338178 14.8986 0.95023 15.4946L13.4973 28.0417ZM3.22127 3.22133H13.2235L25.7706 15.7684L15.7683 25.7706L3.22127 13.2235V3.22133Z" fill="#FF8F28"/>
<path d="M7.8453 187.859C8.95723 187.859 9.85863 186.957 9.85863 185.845C9.85863 184.733 8.95723 183.832 7.8453 183.832C6.73337 183.832 5.83197 184.733 5.83197 185.845C5.83197 186.957 6.73337 187.859 7.8453 187.859Z" fill="#FF8F28"/>
</svg>
