<svg width="39" height="39" viewBox="0 0 39 39" fill="none" xmlns="http://www.w3.org/2000/svg">
<path d="M32.1428 28.3754C29.4774 29.0026 26.6949 28.9722 24.0445 28.287C21.3941 27.6017 18.9584 26.2829 16.9556 24.4487C14.9529 22.6145 13.4456 20.3222 12.5686 17.7769C11.6917 15.2317 11.4725 12.5131 11.9307 9.8645C11.861 9.93047 11.7875 9.99236 11.7104 10.0499C11.1644 10.4569 10.4819 10.6079 9.11684 10.9099L7.87857 11.1851C3.0815 12.2496 0.682968 12.7808 0.11161 14.5792C-0.457798 16.3756 1.17633 18.2504 4.44652 21.9981L5.29283 22.967C6.22105 24.0315 6.6871 24.5647 6.89576 25.2221C7.10441 25.8814 7.03421 26.5923 6.89381 28.0123L6.76511 29.3061C6.27175 34.3074 6.02409 36.8072 7.51782 37.9175C9.01154 39.0298 11.258 38.0169 15.7469 35.9892L16.9111 35.4656C18.1864 34.8884 18.8241 34.6018 19.5007 34.6018C20.1774 34.6018 20.8151 34.8884 22.0923 35.4656L23.2526 35.9892C27.7435 38.015 29.9899 39.0279 31.4817 37.9194C32.9774 36.8072 32.7297 34.3074 32.2364 29.3061L32.1428 28.3754Z" fill="#FF8F28"/>
<path opacity="0.5" d="M13.9486 6.66732L13.309 7.79104C12.607 9.02561 12.256 9.6429 11.71 10.05C11.788 9.99263 11.8601 9.93147 11.9303 9.86459C11.472 12.5134 11.6912 15.2322 12.5682 17.7776C13.4452 20.3231 14.9528 22.6155 16.9558 24.4498C18.9588 26.284 21.3947 27.6028 24.0454 28.2879C26.6961 28.973 29.4788 29.0031 32.1443 28.3755L32.1053 28.0124C31.9669 26.5924 31.8967 25.8815 32.1053 25.2222C32.314 24.5648 32.7781 24.0316 33.7083 22.9671L34.5546 21.9981C37.8248 18.2524 39.4589 16.3776 38.8875 14.5793C38.3181 12.7809 35.9196 12.2477 31.1225 11.1852L29.8823 10.91C28.5192 10.608 27.8367 10.457 27.2888 10.05C26.7428 9.6429 26.3918 9.02561 25.6897 7.79104L25.0521 6.66732C22.5814 2.3253 21.347 0.154297 19.5004 0.154297C17.6537 0.154297 16.4193 2.3253 13.9486 6.66732Z" fill="#FF8F28"/>
</svg>
