<svg width="39" height="39" viewBox="0 0 39 39" fill="none" xmlns="http://www.w3.org/2000/svg">
<path d="M32.1428 28.796C29.4774 29.436 26.6949 29.405 24.0445 28.7058C21.3941 28.0065 18.9584 26.6609 16.9556 24.7893C14.9529 22.9178 13.4456 20.5787 12.5686 17.9817C11.6917 15.3846 11.4725 12.6106 11.9307 9.90805C11.861 9.97536 11.7875 10.0385 11.7104 10.0972C11.1644 10.5126 10.4819 10.6666 9.11684 10.9747L7.87857 11.2555C3.0815 12.3417 0.682968 12.8838 0.11161 14.7188C-0.457798 16.5518 1.17633 18.4648 4.44652 22.2888L5.29283 23.2774C6.22105 24.3636 6.6871 24.9077 6.89576 25.5785C7.10441 26.2512 7.03421 26.9766 6.89381 28.4255L6.76511 29.7457C6.27175 34.8489 6.02409 37.3995 7.51782 38.5325C9.01154 39.6674 11.258 38.6339 15.7469 36.5649L16.9111 36.0306C18.1864 35.4417 18.8241 35.1492 19.5007 35.1492C20.1774 35.1492 20.8151 35.4417 22.0923 36.0306L23.2526 36.5649C27.7435 38.632 29.9899 39.6655 31.4817 38.5345C32.9774 37.3995 32.7297 34.8489 32.2364 29.7457L32.1428 28.796Z" fill="#FF8F28"/>
<path opacity="0.5" d="M13.9487 6.64569L13.3091 7.79231C12.6071 9.05203 12.2561 9.68189 11.7101 10.0972C11.7881 10.0387 11.8603 9.97634 11.9305 9.90809C11.4721 12.6108 11.6913 15.3851 12.5683 17.9823C13.4453 20.5796 14.9529 22.9188 16.9559 24.7904C18.9589 26.662 21.3948 28.0076 24.0455 28.7067C26.6962 29.4057 29.4789 29.4365 32.1444 28.7961L32.1054 28.4256C31.967 26.9767 31.8968 26.2513 32.1054 25.5785C32.3141 24.9077 32.7782 24.3636 33.7084 23.2775L34.5547 22.2888C37.8249 18.4668 39.459 16.5538 38.8876 14.7188C38.3182 12.8838 35.9197 12.3398 31.1226 11.2556L29.8824 10.9748C28.5193 10.6667 27.8368 10.5126 27.2889 10.0972C26.7429 9.68189 26.3919 9.05203 25.6899 7.79231L25.0522 6.64569C22.5815 2.21523 21.3471 0 19.5005 0C17.6538 0 16.4194 2.21523 13.9487 6.64569Z" fill="#FF8F28"/>
</svg>
