<svg width="29" height="38" viewBox="0 0 29 38" fill="none" xmlns="http://www.w3.org/2000/svg">
<path d="M15.7684 33.8241L0 18.0557V21.277C0 22.1306 0.338239 22.9521 0.950291 23.548L13.4974 36.0951C14.7537 37.3514 16.7992 37.3514 18.0555 36.0951L28.0578 26.0929C29.3141 24.8366 29.3141 22.791 28.0578 21.5347L15.7684 33.8241Z" fill="#FF8F28"/>
<path d="M13.4974 28.0417C14.1255 28.6698 14.947 28.9919 15.7684 28.9919C16.5898 28.9919 17.4113 28.6698 18.0394 28.0417L28.0417 18.0394C29.298 16.7831 29.298 14.7376 28.0417 13.4813L15.4946 0.934185C14.8986 0.338239 14.0772 0 13.2235 0H3.22133C1.4496 0 0 1.4496 0 3.22133V13.2235C0 14.0772 0.338239 14.8986 0.950291 15.4946L13.4974 28.0417ZM3.22133 3.22133H13.2235L25.7706 15.7684L15.7684 25.7706L3.22133 13.2235V3.22133Z" fill="#FF8F28"/>
<path d="M6.84536 8.85869C7.95729 8.85869 8.85869 7.95729 8.85869 6.84536C8.85869 5.73343 7.95729 4.83203 6.84536 4.83203C5.73343 4.83203 4.83203 5.73343 4.83203 6.84536C4.83203 7.95729 5.73343 8.85869 6.84536 8.85869Z" fill="#FF8F28"/>
</svg>
