<svg width="38" height="38" viewBox="0 0 38 38" fill="none" xmlns="http://www.w3.org/2000/svg">
<path d="M5.75704 9.91317C5.75704 8.8109 6.19492 7.75377 6.97434 6.97434C7.75377 6.19492 8.8109 5.75704 9.91317 5.75704H11.8023C12.8997 5.75641 13.9524 5.32178 14.7305 4.54798L16.0529 3.22557C16.4392 2.83716 16.8984 2.52893 17.4041 2.3186C17.9099 2.10828 18.4522 2 19 2C19.5478 2 20.0901 2.10828 20.5959 2.3186C21.1016 2.52893 21.5608 2.83716 21.9471 3.22557L23.2695 4.54798C24.0478 5.32253 25.102 5.75704 26.1977 5.75704H28.0868C29.1891 5.75704 30.2462 6.19492 31.0257 6.97434C31.8051 7.75377 32.243 8.8109 32.243 9.91317V11.8023C32.243 12.898 32.6775 13.9522 33.452 14.7305L34.7744 16.0529C35.1628 16.4392 35.4711 16.8984 35.6814 17.4041C35.8917 17.9099 36 18.4522 36 19C36 19.5478 35.8917 20.0901 35.6814 20.5959C35.4711 21.1016 35.1628 21.5608 34.7744 21.9471L33.452 23.2695C32.6782 24.0476 32.2436 25.1003 32.243 26.1977V28.0868C32.243 29.1891 31.8051 30.2462 31.0257 31.0257C30.2462 31.8051 29.1891 32.243 28.0868 32.243H26.1977C25.1003 32.2436 24.0476 32.6782 23.2695 33.452L21.9471 34.7744C21.5608 35.1628 21.1016 35.4711 20.5959 35.6814C20.0901 35.8917 19.5478 36 19 36C18.4522 36 17.9099 35.8917 17.4041 35.6814C16.8984 35.4711 16.4392 35.1628 16.0529 34.7744L14.7305 33.452C13.9524 32.6782 12.8997 32.2436 11.8023 32.243H9.91317C8.8109 32.243 7.75377 31.8051 6.97434 31.0257C6.19492 30.2462 5.75704 29.1891 5.75704 28.0868V26.1977C5.75641 25.1003 5.32178 24.0476 4.54798 23.2695L3.22557 21.9471C2.83716 21.5608 2.52893 21.1016 2.3186 20.5959C2.10828 20.0901 2 19.5478 2 19C2 18.4522 2.10828 17.9099 2.3186 17.4041C2.52893 16.8984 2.83716 16.4392 3.22557 16.0529L4.54798 14.7305C5.32178 13.9524 5.75641 12.8997 5.75704 11.8023V9.91317Z" stroke="#FF8F28" stroke-width="2.51852" stroke-linecap="round" stroke-linejoin="round"/>
<path d="M13.3137 18.9809L17.092 22.7592L24.6486 15.2026" stroke="#FF8F28" stroke-width="2.51852" stroke-linecap="round" stroke-linejoin="round"/>
</svg>
