<svg width="24" height="24" viewBox="0 0 24 24" fill="none" xmlns="http://www.w3.org/2000/svg">
<path d="M21.731 2.26918C21.2387 1.77699 20.5711 1.50049 19.875 1.50049C19.1789 1.50049 18.5113 1.77699 18.019 2.26918L16.862 3.42618L20.574 7.13818L21.731 5.98118C22.2232 5.48891 22.4997 4.8213 22.4997 4.12518C22.4997 3.42906 22.2232 2.76145 21.731 2.26918ZM19.513 8.19918L15.801 4.48718L3.65101 16.6372C3.03386 17.254 2.58019 18.015 2.33101 18.8512L1.53101 21.5362C1.49239 21.6657 1.48951 21.8033 1.52267 21.9344C1.55584 22.0655 1.62382 22.1852 1.71943 22.2808C1.81503 22.3764 1.9347 22.4443 2.06577 22.4775C2.19684 22.5107 2.33444 22.5078 2.46401 22.4692L5.14901 21.6692C5.98524 21.42 6.74617 20.9663 7.36301 20.3492L19.513 8.19918Z" fill="black"/>
</svg>
