<svg width="32" height="35" viewBox="0 0 32 35" fill="none" xmlns="http://www.w3.org/2000/svg">
<path d="M28.4444 31.5H3.55556V12.25H28.4444M23.1111 0V3.5H8.88889V0H5.33333V3.5H3.55556C1.58222 3.5 0 5.0575 0 7V31.5C0 32.4283 0.374602 33.3185 1.0414 33.9749C1.70819 34.6313 2.61256 35 3.55556 35H28.4444C29.3874 35 30.2918 34.6313 30.9586 33.9749C31.6254 33.3185 32 32.4283 32 31.5V7C32 6.07174 31.6254 5.1815 30.9586 4.52513C30.2918 3.86875 29.3874 3.5 28.4444 3.5H26.6667V0M24.8889 19.25H16V28H24.8889V19.25Z" fill="#5A5A5A"/>
</svg>
