<svg width="64" height="62" viewBox="0 0 64 62" fill="none" xmlns="http://www.w3.org/2000/svg">
<path d="M37.2 0.99904C33.8619 -0.333013 30.1381 -0.333013 26.8 0.99904L3.772 10.196C2.65964 10.6398 1.70592 11.4056 1.03366 12.3947C0.361405 13.3839 0.00139765 14.5511 8.37425e-08 15.7462V46.2538C-0.000200256 47.4502 0.359062 48.6192 1.03142 49.61C1.70378 50.6007 2.65837 51.3677 3.772 51.8119L26.8 61.001C30.1381 62.333 33.8619 62.333 37.2 61.001L60.228 51.8119C61.3416 51.3677 62.2962 50.6007 62.9686 49.61C63.6409 48.6192 64.0002 47.4502 64 46.2538V15.7462C63.9994 14.5504 63.6398 13.3823 62.9675 12.3924C62.2952 11.4024 61.341 10.6361 60.228 10.192L37.2 0.99904ZM28.288 4.70976C30.6722 3.75844 33.3318 3.75844 35.716 4.70976L56.616 13.0489L47.5 16.6798L22.884 6.86437L28.288 4.70976ZM17.5 9.00701L42.116 18.8265L32 22.8683L7.384 13.0449L17.5 9.00701ZM34 26.3636L60 15.9895V46.2499C60.0007 46.649 59.8814 47.0391 59.6575 47.3698C59.4336 47.7006 59.1154 47.9568 58.744 48.1052L35.712 57.2942C35.152 57.5137 34.58 57.6852 34 57.805V26.3636ZM30 26.3636V57.805C29.4152 57.6858 28.8423 57.5149 28.288 57.2942L5.256 48.1052C4.88525 47.957 4.56748 47.7015 4.34363 47.3715C4.11977 47.0415 4.00009 46.6523 4 46.2538V15.9935L30 26.3676V26.3636Z" fill="black"/>
</svg>
