<svg width="129" height="163" viewBox="0 0 129 163" fill="none" xmlns="http://www.w3.org/2000/svg">
<path fill-rule="evenodd" clip-rule="evenodd" d="M70.2191 0.270165C66.2988 1.28408 58.5681 4.74333 53.7839 7.62476C40.1863 15.8137 31.7523 26.421 28.7807 39.0708C28.2272 41.4268 28.0294 42.7454 27.7599 45.8723C27.5587 48.2069 27.3987 49.1087 26.9648 50.3556L26.4219 51.9164L26.0599 51.2317C25.8609 50.855 25.1871 49.4036 24.5628 48.0063C22.0746 42.4381 19.5693 37.7771 17.1702 34.2527C15.4518 31.7283 14.4686 30.5348 12.6495 28.7651C10.8081 26.9738 9.68184 26.1284 8.0384 25.304L6.77224 24.6689L6.71441 25.2212C6.68248 25.5248 6.78264 27.2082 6.9368 28.9618C7.68683 37.4938 7.79156 48.0438 7.16779 52.2174C6.76805 54.8913 5.64621 60.1326 3.86885 67.6293C1.41262 77.9896 0.405173 83.563 0.197006 87.9403C0.144097 89.0555 0.0652737 90.4235 0.0220347 90.9803C-0.0854241 92.3627 0.216706 96.9378 0.569185 99.2677C1.64833 106.401 4.6176 113.72 9.34104 120.892C12.7091 126.005 16.2894 129.876 21.094 133.598C25.7337 137.193 33.4998 141.154 38.4261 142.438C41.2277 143.169 46.7754 143.997 51.2883 144.358C52.5928 144.462 54.1277 144.589 54.6994 144.641L55.7386 144.735L55.8321 144.158C55.8835 143.841 55.9709 141.176 56.0263 138.237C56.0816 135.298 56.1665 131.79 56.2146 130.44C56.3688 126.122 56.4784 122.32 56.581 117.738C56.6359 115.281 56.7202 112.521 56.7682 111.605L56.8552 109.939L55.2577 109.545C52.2306 108.797 49.2617 107.154 47.3455 105.167C40.9909 98.575 39.7565 86.4355 43.3681 66.0525C44.3872 60.3005 46.4658 50.0238 46.8393 48.8911C47.3353 47.3862 47.6199 46.8874 48.5143 45.9557C49.2645 45.1741 50.9442 44.201 51.1695 44.4174C51.3436 44.5845 51.3323 43.2817 51.3567 65.702L51.3795 86.5515H53.0146H54.6498L54.7102 67.4103C54.764 50.3712 54.8031 48.1678 55.0662 47.3468C55.4427 46.1715 56.1086 45.0891 56.8829 44.3937C57.6452 43.7092 59.4169 42.5749 59.7239 42.5749C59.9084 42.5749 59.9543 46.9614 59.9543 64.5425V86.51L61.4971 86.6335C62.3456 86.7013 63.1256 86.706 63.2303 86.6438C63.3609 86.5662 63.4208 79.6335 63.4208 64.5601V42.5895L64.351 43.1447C65.7858 44.0013 66.7587 44.9036 67.3252 45.903C68.4815 47.9434 68.4197 46.7783 68.4826 67.6796L68.5401 86.7397L70.2222 86.6894L71.9044 86.6391L71.9507 65.3954C71.9762 53.7115 72.0423 44.1518 72.0976 44.1518C72.1528 44.1518 72.6894 44.4722 73.2902 44.864C75.5461 46.3352 76.3773 48.0461 77.3994 53.322C77.6451 54.5902 77.964 56.2191 78.1082 56.9418C79.8251 65.551 80.6189 70.2553 81.3306 76.0392C81.6612 78.7254 81.7307 80.2557 81.7367 84.9746C81.7433 90.1108 81.7037 90.892 81.333 92.946C80.6507 96.7255 80.0939 98.4945 78.7954 101.006C76.4818 105.481 72.8372 108.332 67.9129 109.518L66.3163 109.903L66.417 113.251C66.4725 115.092 66.5617 121.133 66.6153 126.674C66.669 132.214 66.7509 138.443 66.7972 140.515C66.8438 142.587 66.9339 148.526 66.9977 153.713C67.0614 158.9 67.1758 163.079 67.2521 162.999C67.3281 162.919 69.208 158.798 71.4295 153.842C73.6507 148.886 75.4897 144.81 75.516 144.785C75.5423 144.759 76.8686 144.614 78.4635 144.461C83.4785 143.979 85.7645 143.375 89.6945 141.49C96.781 138.093 102.733 133.959 108.497 128.433C119.911 117.487 126.447 104.623 128.571 88.9168C129.1 85.0064 129.148 77.3946 128.669 73.2359C128.208 69.2216 127.506 64.505 127.002 62.0227C126.474 59.4304 124.471 52.347 123.545 49.802C121.27 43.5487 117.064 36.2241 112.882 31.2302C111.502 29.5831 109.812 27.9257 109.661 28.0711C109.621 28.1096 109.666 28.6095 109.761 29.182C109.857 29.7544 110.157 31.9575 110.429 34.0775C110.875 37.5465 110.925 38.5189 110.934 43.8014C110.943 49.2266 110.912 49.8298 110.524 51.7732C109.529 56.7511 108.019 60.3704 105.187 64.5695C103.392 67.2302 103.452 67.2514 103.302 63.9099C102.805 52.8274 101.092 46.683 97.5471 43.2591C95.1656 40.9588 93.0426 40.2973 86.9559 39.9581C85.0995 39.8545 82.965 39.6462 82.2124 39.495C75.9821 38.2437 72.9404 33.0262 71.9034 21.8131C71.4924 17.3685 71.5685 8.20102 72.0724 1.44544L72.1802 0L71.6774 0.0115652C71.4008 0.0178726 70.7446 0.134206 70.2191 0.270165Z" fill="white"/>
</svg>
