<svg width="64" height="62" viewBox="0 0 64 62" fill="none" xmlns="http://www.w3.org/2000/svg">
<path d="M37.2 1.86288C33.8619 0.557424 30.1381 0.557424 26.8 1.86288L3.772 10.8763C2.65964 11.3112 1.70592 12.0616 1.03366 13.0311C0.361405 14.0005 0.00139765 15.1444 8.37425e-08 16.3156V46.2142C-0.000200256 47.3867 0.359062 48.5324 1.03142 49.5034C1.70378 50.4743 2.65837 51.226 3.772 51.6614L26.8 60.6669C30.1381 61.9724 33.8619 61.9724 37.2 60.6669L60.228 51.6614C61.3416 51.226 62.2962 50.4743 62.9686 49.5034C63.6409 48.5324 64.0002 47.3867 64 46.2142V16.3156C63.9994 15.1437 63.6398 13.9989 62.9675 13.0288C62.2952 12.0586 61.341 11.3075 60.228 10.8724L37.2 1.86288ZM28.288 5.49952C30.6722 4.5672 33.3318 4.5672 35.716 5.49952L56.616 13.6722L47.5 17.2306L22.884 7.61112L28.288 5.49952ZM17.5 9.71099L42.116 19.3344L32 23.2956L7.384 13.6683L17.5 9.71099ZM34 26.7211L60 16.5541V46.2103C60.0007 46.6015 59.8814 46.9838 59.6575 47.308C59.4336 47.6321 59.1154 47.8831 58.744 48.0286L35.712 57.0342C35.152 57.2493 34.58 57.4174 34 57.5347V26.7211ZM30 26.7211V57.5347C29.4152 57.418 28.8423 57.2505 28.288 57.0342L5.256 48.0286C4.88525 47.8834 4.56748 47.6329 4.34363 47.3096C4.11977 46.9862 4.00009 46.6047 4 46.2142V16.558L30 26.725V26.7211Z" fill="black"/>
</svg>
