<svg width="25" height="25" viewBox="0 0 25 25" fill="none" xmlns="http://www.w3.org/2000/svg">
<path d="M23.5417 25C20.5556 25 17.6449 24.3343 14.8097 23.0028C11.9745 21.6713 9.46296 19.912 7.275 17.725C5.08704 15.538 3.32778 13.0264 1.99722 10.1903C0.666667 7.35417 0.000925926 4.44352 0 1.45833C0 1.04167 0.138889 0.694444 0.416667 0.416667C0.694444 0.138889 1.04167 0 1.45833 0H7.08333C7.40741 0 7.69676 0.104167 7.95139 0.3125C8.20602 0.520833 8.35648 0.787037 8.40278 1.11111L9.30555 5.97222C9.35185 6.2963 9.34583 6.59167 9.2875 6.85833C9.22917 7.125 9.0963 7.36204 8.88889 7.56944L5.55556 10.9722C6.52778 12.6389 7.74306 14.2014 9.20139 15.6597C10.6597 17.1181 12.2685 18.3796 14.0278 19.4444L17.2917 16.1806C17.5 15.9722 17.7722 15.8162 18.1083 15.7125C18.4444 15.6088 18.7741 15.5796 19.0972 15.625L23.8889 16.5972C24.213 16.6667 24.4792 16.8231 24.6875 17.0667C24.8958 17.3102 25 17.5935 25 17.9167V23.5417C25 23.9583 24.8611 24.3056 24.5833 24.5833C24.3056 24.8611 23.9583 25 23.5417 25Z" fill="white"/>
</svg>
