<svg width="21" height="21" viewBox="0 0 21 21" fill="none" xmlns="http://www.w3.org/2000/svg">
<path d="M20.2313 0.76869C19.739 0.276502 19.0714 0 18.3753 0C17.6791 0 17.0115 0.276502 16.5193 0.76869L15.3623 1.92569L19.0743 5.63769L20.2313 4.48069C20.7234 3.98842 20.9999 3.32081 20.9999 2.62469C20.9999 1.92857 20.7234 1.26096 20.2313 0.76869ZM18.0133 6.69869L14.3013 2.98669L2.15125 15.1367C1.53411 15.7535 1.08043 16.5145 0.831255 17.3507L0.0312546 20.0357C-0.00736926 20.1653 -0.0102499 20.3029 0.0229175 20.4339C0.0560849 20.565 0.124067 20.6847 0.21967 20.7803C0.315273 20.8759 0.434942 20.9439 0.566014 20.977C0.697085 21.0102 0.834686 21.0073 0.964255 20.9687L3.64925 20.1687C4.48548 19.9195 5.24642 19.4658 5.86325 18.8487L18.0133 6.69869Z" fill="#4F4F4F"/>
</svg>
