<svg width="132" height="173" viewBox="0 0 132 173" fill="none" xmlns="http://www.w3.org/2000/svg">
<path fill-rule="evenodd" clip-rule="evenodd" d="M71.793 0.951831C67.8221 2.02173 59.9915 5.67198 55.1455 8.71251C41.3722 17.3536 32.8293 28.5466 29.8192 41.8948C29.2585 44.3809 29.0582 45.7723 28.7853 49.0719C28.5814 51.5354 28.4194 52.487 27.9799 53.8027L27.4299 55.4496L27.0633 54.7271C26.8617 54.3296 26.1792 52.7981 25.5468 51.3237C23.0265 45.448 20.4889 40.5297 18.0587 36.8107C16.3181 34.1469 15.3222 32.8875 13.4796 31.0201C11.6144 29.1299 10.4736 28.2378 8.80894 27.3679L7.52643 26.6978L7.46784 27.2805C7.4355 27.6009 7.53696 29.3772 7.69311 31.2277C8.45283 40.2307 8.55891 51.3633 7.92708 55.7673C7.52218 58.5889 6.38584 64.1196 4.58552 72.0302C2.09756 82.9625 1.07709 88.8437 0.866238 93.4627C0.812646 94.6394 0.732804 96.083 0.689006 96.6705C0.580159 98.1292 0.886192 102.957 1.24323 105.416C2.33632 112.942 5.34394 120.666 10.1284 128.234C13.54 133.63 17.1665 137.714 22.0332 141.642C26.7329 145.435 34.5993 149.614 39.5892 150.97C42.427 151.741 48.0464 152.614 52.6176 152.995C53.939 153.105 55.4937 153.24 56.0729 153.294L57.1255 153.393L57.2201 152.784C57.2722 152.449 57.3607 149.638 57.4169 146.537C57.4729 143.435 57.5588 139.733 57.6076 138.309C57.7638 133.752 57.8748 129.741 57.9787 124.906C58.0343 122.313 58.1197 119.4 58.1683 118.434L58.2564 116.676L56.6383 116.26C53.5721 115.471 50.5649 113.737 48.6239 111.64C42.1872 104.684 40.9368 91.8748 44.5951 70.3663C45.6274 64.2967 47.7328 53.4526 48.1111 52.2573C48.6136 50.6694 48.9019 50.1431 49.8078 49.1599C50.5677 48.3351 52.2691 47.3083 52.4973 47.5366C52.6736 47.713 52.6622 46.3382 52.6869 69.9965L52.71 91.9972H54.3662H56.0226L56.0837 71.7991C56.1383 53.8192 56.1778 51.4942 56.4443 50.6278C56.8257 49.3876 57.5002 48.2454 58.2845 47.5117C59.0566 46.7893 60.8512 45.5924 61.1622 45.5924C61.3491 45.5924 61.3956 50.2211 61.3956 68.773V91.9533L62.9583 92.0837C63.8178 92.1552 64.6078 92.1602 64.7139 92.0946C64.8462 92.0127 64.9068 84.6972 64.9068 68.7915V45.6078L65.8491 46.1937C67.3024 47.0975 68.2879 48.0497 68.8617 49.1042C70.033 51.2573 69.9704 50.0279 70.0341 72.0832L70.0923 92.1957L71.7962 92.1427L73.5 92.0896L73.547 69.673C73.5729 57.3439 73.6398 47.2563 73.6958 47.2563C73.7517 47.2563 74.2952 47.5945 74.9038 48.0079C77.1888 49.5603 78.0308 51.3657 79.066 56.9329C79.315 58.2711 79.638 59.9899 79.784 60.7525C81.5231 69.8371 82.3272 74.8012 83.0481 80.9044C83.383 83.739 83.4534 85.3537 83.4595 90.3332C83.4661 95.753 83.426 96.5773 83.0505 98.7447C82.3594 102.733 81.7953 104.6 80.4801 107.25C78.1367 111.972 74.4449 114.98 69.457 116.232L67.8398 116.637L67.9418 120.171C67.998 122.114 68.0884 128.488 68.1427 134.335C68.197 140.181 68.28 146.754 68.3269 148.94C68.3741 151.126 68.4654 157.393 68.53 162.867C68.5945 168.34 68.7104 172.75 68.7876 172.666C68.8647 172.581 70.7689 168.233 73.019 163.003C75.2689 157.773 77.1317 153.472 77.1584 153.446C77.185 153.419 78.5285 153.265 80.144 153.104C85.2238 152.596 87.5393 151.958 91.5201 149.97C98.6981 146.384 104.727 142.022 110.565 136.191C122.127 124.641 128.747 111.066 130.899 94.493C131.435 90.3667 131.483 82.3346 130.999 77.9463C130.531 73.7104 129.82 68.7334 129.309 66.114C128.775 63.3786 126.746 55.9041 125.808 53.2185C123.504 46.62 119.244 38.8909 115.007 33.6213C113.609 31.8833 111.898 30.1343 111.744 30.2878C111.704 30.3284 111.749 30.8559 111.846 31.4601C111.943 32.0641 112.247 34.3887 112.523 36.6258C112.974 40.2864 113.025 41.3125 113.034 46.8866C113.043 52.6114 113.012 53.2479 112.619 55.2986C111.61 60.5514 110.081 64.3704 107.212 68.8015C105.394 71.609 105.455 71.6314 105.303 68.1054C104.799 56.411 103.065 49.9273 99.4741 46.3144C97.0619 43.8871 94.9113 43.189 88.746 42.8311C86.8657 42.7218 84.7035 42.502 83.9412 42.3424C77.6305 41.022 74.5495 35.5165 73.4991 23.6842C73.0828 18.9942 73.1598 9.32058 73.6703 2.192L73.7795 0.666748L73.2702 0.678952C72.99 0.685608 72.3253 0.808364 71.793 0.951831Z" fill="white"/>
</svg>
