<svg width="132" height="173" viewBox="0 0 132 173" fill="none" xmlns="http://www.w3.org/2000/svg">
<path fill-rule="evenodd" clip-rule="evenodd" d="M71.7931 0.61809C67.8221 1.68799 59.9916 5.33824 55.1456 8.37877C41.3723 17.0198 32.8293 28.2128 29.8193 41.5611C29.2586 44.0472 29.0583 45.4386 28.7853 48.7381C28.5815 51.2016 28.4194 52.1532 27.98 53.469L27.43 55.1159L27.0634 54.3934C26.8617 53.9959 26.1793 52.4644 25.5469 50.99C23.0266 45.1143 20.4889 40.196 18.0588 36.4769C16.3182 33.8132 15.3223 32.5538 13.4796 30.6863C11.6144 28.7961 10.4737 27.9041 8.809 27.0342L7.52649 26.364L7.4679 26.9468C7.43556 27.2672 7.53702 29.0435 7.69317 30.8939C8.45289 39.897 8.55897 51.0295 7.92714 55.4335C7.52224 58.2552 6.3859 63.7858 4.58558 71.6964C2.09762 82.6287 1.07716 88.5099 0.866299 93.129C0.812707 94.3057 0.732865 95.7492 0.689067 96.3368C0.58022 97.7955 0.886253 102.623 1.24329 105.082C2.33638 112.608 5.344 120.332 10.1285 127.9C13.5401 133.296 17.1666 137.38 22.0333 141.308C26.7329 145.101 34.5993 149.28 39.5893 150.636C42.4271 151.407 48.0465 152.28 52.6177 152.661C53.939 152.771 55.4937 152.906 56.0729 152.96L57.1255 153.059L57.2202 152.451C57.2723 152.116 57.3608 149.304 57.417 146.203C57.4729 143.101 57.5589 139.399 57.6077 137.976C57.7638 133.418 57.8749 129.407 57.9788 124.572C58.0344 121.979 58.1198 119.067 58.1684 118.1L58.2565 116.342L56.6384 115.926C53.5722 115.137 50.5649 113.404 48.624 111.306C42.1872 104.351 40.9369 91.541 44.5952 70.0325C45.6275 63.9629 47.7329 53.1188 48.1112 51.9236C48.6136 50.3357 48.9019 49.8093 49.8078 48.8261C50.5677 48.0014 52.2692 46.9746 52.4974 47.2029C52.6737 47.3793 52.6622 46.0045 52.687 69.6628L52.7101 91.6634H54.3663H56.0226L56.0838 71.4653C56.1383 53.4855 56.1779 51.1604 56.4444 50.2941C56.8258 49.0539 57.5003 47.9117 58.2846 47.1779C59.0567 46.4556 60.8513 45.2587 61.1623 45.2587C61.3491 45.2587 61.3957 49.8873 61.3957 68.4392V91.6196L62.9584 91.7499C63.8179 91.8215 64.6079 91.8265 64.714 91.7608C64.8463 91.6789 64.9069 84.3634 64.9069 68.4577V45.274L65.8492 45.8599C67.3025 46.7638 68.288 47.7159 68.8618 48.7705C70.0331 50.9236 69.9704 49.6941 70.0342 71.7495L70.0924 91.862L71.7963 91.8089L73.5001 91.7559L73.5471 69.3392C73.5729 57.0102 73.6398 46.9226 73.6958 46.9226C73.7518 46.9226 74.2953 47.2608 74.9038 47.6741C77.1889 49.2266 78.0309 51.0319 79.0661 56.5992C79.315 57.9374 79.6381 59.6562 79.7841 60.4188C81.5232 69.5034 82.3273 74.4674 83.0482 80.5707C83.383 83.4052 83.4534 85.02 83.4595 89.9995C83.4662 95.4192 83.4261 96.2436 83.0506 98.4109C82.3594 102.399 81.7954 104.266 80.4802 106.916C78.1367 111.638 74.445 114.647 69.4571 115.898L67.8399 116.304L67.9419 119.837C67.998 121.78 68.0884 128.154 68.1428 134.001C68.1971 139.848 68.2801 146.42 68.327 148.606C68.3741 150.792 68.4654 157.059 68.5301 162.533C68.5946 168.007 68.7105 172.416 68.7877 172.332C68.8648 172.247 70.7689 167.899 73.0191 162.669C75.269 157.439 77.1318 153.138 77.1584 153.112C77.185 153.085 78.5285 152.931 80.144 152.77C85.2238 152.262 87.5394 151.624 91.5201 149.636C98.6981 146.051 104.727 141.688 110.565 135.857C122.127 124.307 128.747 110.732 130.899 94.1593C131.435 90.033 131.483 82.0009 130.999 77.6126C130.531 73.3766 129.82 68.3997 129.309 65.7803C128.775 63.0448 126.746 55.5703 125.808 52.8848C123.504 46.2863 119.244 38.5572 115.007 33.2876C113.609 31.5495 111.898 29.8006 111.744 29.954C111.704 29.9947 111.749 30.5221 111.846 31.1263C111.943 31.7303 112.247 34.055 112.523 36.292C112.974 39.9527 113.025 40.9787 113.034 46.5528C113.043 52.2776 113.012 52.9142 112.619 54.9649C111.611 60.2177 110.081 64.0367 107.212 68.4677C105.394 71.2753 105.455 71.2977 105.303 67.7716C104.799 56.0773 103.065 49.5936 99.4741 45.9807C97.0619 43.5534 94.9114 42.8553 88.7461 42.4973C86.8658 42.3881 84.7036 42.1683 83.9413 42.0087C77.6306 40.6883 74.5496 35.1828 73.4992 23.3505C73.0828 18.6605 73.1599 8.98684 73.6703 1.85826L73.7795 0.333008L73.2702 0.345212C72.9901 0.351867 72.3253 0.474624 71.7931 0.61809Z" fill="white"/>
</svg>
