<svg width="30" height="30" viewBox="0 0 30 30" fill="none" xmlns="http://www.w3.org/2000/svg">
<path d="M14.0006 0.701185C14.0752 0.495722 14.2112 0.318202 14.3902 0.19275C14.5692 0.0672988 14.7825 0 15.0011 0C15.2196 0 15.4329 0.0672988 15.6119 0.19275C15.7909 0.318202 15.9269 0.495722 16.0015 0.701185L17.019 3.48113C17.8159 5.66101 19.0791 7.64066 20.7203 9.28185C22.3615 10.923 24.3411 12.1862 26.521 12.9832L29.2988 14.0006C29.5043 14.0752 29.6818 14.2112 29.8073 14.3902C29.9327 14.5692 30 14.7825 30 15.0011C30 15.2196 29.9327 15.4329 29.8073 15.6119C29.6818 15.7909 29.5043 15.9269 29.2988 16.0015L26.521 17.019C24.3411 17.8159 22.3615 19.0791 20.7203 20.7203C19.0791 22.3615 17.8159 24.3411 17.019 26.521L16.0015 29.2988C15.9269 29.5043 15.7909 29.6818 15.6119 29.8073C15.4329 29.9327 15.2196 30 15.0011 30C14.7825 30 14.5692 29.9327 14.3902 29.8073C14.2112 29.6818 14.0752 29.5043 14.0006 29.2988L12.9832 26.521C12.1862 24.3411 10.923 22.3615 9.28185 20.7203C7.64066 19.0791 5.66101 17.8159 3.48113 17.019L0.701185 16.0015C0.495722 15.9269 0.318202 15.7909 0.19275 15.6119C0.0672988 15.4329 0 15.2196 0 15.0011C0 14.7825 0.0672988 14.5692 0.19275 14.3902C0.318202 14.2112 0.495722 14.0752 0.701185 14.0006L3.48113 12.9832C5.66101 12.1862 7.64066 10.923 9.28185 9.28185C10.923 7.64066 12.1862 5.66101 12.9832 3.48113L14.0006 0.701185Z" fill="white"/>
</svg>
