<svg width="58" height="58" viewBox="0 0 58 58" fill="none" xmlns="http://www.w3.org/2000/svg">
<path d="M37.9842 31.0668L31.9 27.625V15.0544C31.9 14.3006 31.5945 13.5777 31.0506 13.0447C30.5068 12.5117 29.7691 12.2123 29 12.2123C28.2309 12.2123 27.4933 12.5117 26.9494 13.0447C26.4055 13.5777 26.1 14.3006 26.1 15.0544V29.2649C26.1 29.7638 26.234 30.2539 26.4886 30.6859C26.7431 31.118 27.1092 31.4767 27.55 31.7262L35.0842 35.9893C35.4141 36.1789 35.7791 36.3026 36.158 36.3534C36.5369 36.4042 36.9224 36.381 37.2921 36.2852C37.6619 36.1894 38.0086 36.0229 38.3124 35.7952C38.6162 35.5675 38.8711 35.2832 39.0623 34.9586C39.2536 34.634 39.3774 34.2755 39.4267 33.9038C39.476 33.5321 39.4498 33.1546 39.3496 32.7928C39.2493 32.4311 39.0771 32.0924 38.8428 31.7962C38.6085 31.4999 38.3167 31.2521 37.9842 31.0668ZM29 0.843872C23.2644 0.843872 17.6575 2.51074 12.8885 5.63368C8.11945 8.75663 4.40245 13.1954 2.20751 18.3887C0.0125652 23.5819 -0.561731 29.2964 0.55724 34.8096C1.67621 40.3227 4.43819 45.3869 8.49391 49.3616C12.5496 53.3364 17.7169 56.0432 23.3424 57.1399C28.9678 58.2365 34.7988 57.6737 40.0978 55.5225C45.3969 53.3714 49.9261 49.7286 53.1126 45.0548C56.2992 40.381 58 34.8861 58 29.2649C57.9916 21.7297 54.9335 14.5055 49.4968 9.17734C44.06 3.84916 36.6887 0.852147 29 0.843872ZM29 52.0018C24.4115 52.0018 19.926 50.6683 16.1108 48.1699C12.2956 45.6715 9.32196 42.1205 7.56601 37.9659C5.81005 33.8113 5.35062 29.2397 6.24579 24.8292C7.14097 20.4187 9.35056 16.3673 12.5951 13.1875C15.8397 10.0077 19.9736 7.84227 24.4739 6.96496C28.9743 6.08766 33.639 6.53792 37.8783 8.25882C42.1175 9.97972 45.7408 12.894 48.2901 16.633C50.8393 20.3721 52.2 24.768 52.2 29.2649C52.1923 35.2928 49.7456 41.0716 45.3964 45.334C41.0472 49.5963 35.1507 51.9942 29 52.0018Z" fill="black"/>
</svg>
