<svg width="132" height="173" viewBox="0 0 132 173" fill="none" xmlns="http://www.w3.org/2000/svg">
<path fill-rule="evenodd" clip-rule="evenodd" d="M71.7929 0.61809C67.8219 1.68799 59.9914 5.33824 55.1453 8.37877C41.372 17.0198 32.8291 28.2128 29.819 41.5611C29.2584 44.0472 29.058 45.4386 28.7851 48.7381C28.5812 51.2016 28.4192 52.1532 27.9797 53.469L27.4298 55.1159L27.0631 54.3934C26.8615 53.9959 26.179 52.4644 25.5467 50.99C23.0263 45.1143 20.4887 40.196 18.0585 36.4769C16.3179 33.8132 15.322 32.5538 13.4794 30.6863C11.6142 28.7961 10.4734 27.9041 8.80876 27.0342L7.52624 26.364L7.46766 26.9468C7.43532 27.2672 7.53677 29.0435 7.69293 30.8939C8.45264 39.897 8.55873 51.0295 7.9269 55.4335C7.522 58.2552 6.38566 63.7858 4.58534 71.6964C2.09737 82.6287 1.07691 88.5099 0.866055 93.129C0.812463 94.3057 0.732621 95.7492 0.688823 96.3368C0.579976 97.7955 0.886009 102.623 1.24304 105.082C2.33614 112.608 5.34376 120.332 10.1282 127.9C13.5398 133.296 17.1663 137.38 22.033 141.308C26.7327 145.101 34.5991 149.28 39.5891 150.636C42.4268 151.407 48.0462 152.28 52.6175 152.661C53.9388 152.771 55.4935 152.906 56.0727 152.96L57.1253 153.059L57.2199 152.451C57.272 152.116 57.3605 149.304 57.4167 146.203C57.4727 143.101 57.5586 139.399 57.6074 137.976C57.7636 133.418 57.8747 129.407 57.9785 124.572C58.0341 121.979 58.1195 119.067 58.1681 118.1L58.2563 116.342L56.6382 115.926C53.572 115.137 50.5647 113.404 48.6237 111.306C42.187 104.351 40.9366 91.541 44.5949 70.0325C45.6272 63.9629 47.7326 53.1188 48.1109 51.9236C48.6134 50.3357 48.9017 49.8093 49.8076 48.8261C50.5675 48.0014 52.2689 46.9746 52.4972 47.2029C52.6735 47.3793 52.662 46.0045 52.6868 69.6628L52.7099 91.6634H54.366H56.0224L56.0836 71.4653C56.1381 53.4855 56.1776 51.1604 56.4441 50.2941C56.8255 49.0539 57.5001 47.9117 58.2843 47.1779C59.0564 46.4556 60.851 45.2587 61.1621 45.2587C61.3489 45.2587 61.3955 49.8873 61.3955 68.4392V91.6196L62.9581 91.7499C63.8176 91.8215 64.6077 91.8265 64.7137 91.7608C64.846 91.6789 64.9067 84.3634 64.9067 68.4577V45.274L65.849 45.8599C67.3022 46.7638 68.2878 47.7159 68.8616 48.7705C70.0328 50.9236 69.9702 49.6941 70.0339 71.7495L70.0921 91.862L71.796 91.8089L73.4999 91.7559L73.5468 69.3392C73.5727 57.0102 73.6396 46.9226 73.6956 46.9226C73.7516 46.9226 74.2951 47.2608 74.9036 47.6741C77.1887 49.2266 78.0306 51.0319 79.0659 56.5992C79.3148 57.9374 79.6378 59.6562 79.7838 60.4188C81.523 69.5034 82.327 74.4674 83.0479 80.5707C83.3828 83.4052 83.4532 85.02 83.4593 89.9995C83.4659 95.4192 83.4259 96.2436 83.0503 98.4109C82.3592 102.399 81.7952 104.266 80.4799 106.916C78.1365 111.638 74.4447 114.647 69.4568 115.898L67.8396 116.304L67.9416 119.837C67.9978 121.78 68.0882 128.154 68.1425 134.001C68.1968 139.848 68.2798 146.42 68.3268 148.606C68.3739 150.792 68.4652 157.059 68.5299 162.533C68.5943 168.007 68.7102 172.416 68.7875 172.332C68.8645 172.247 70.7687 167.899 73.0188 162.669C75.2688 157.439 77.1316 153.138 77.1582 153.112C77.1848 153.085 78.5283 152.931 80.1438 152.77C85.2236 152.262 87.5391 151.624 91.5199 149.636C98.6979 146.051 104.727 141.688 110.565 135.857C122.127 124.307 128.747 110.732 130.899 94.1593C131.434 90.033 131.483 82.0009 130.998 77.6126C130.531 73.3766 129.82 68.3997 129.309 65.7803C128.775 63.0448 126.746 55.5703 125.808 52.8848C123.503 46.2863 119.243 38.5572 115.007 33.2876C113.609 31.5495 111.897 29.8006 111.744 29.954C111.703 29.9947 111.749 30.5221 111.846 31.1263C111.943 31.7303 112.247 34.055 112.523 36.292C112.974 39.9527 113.025 40.9787 113.034 46.5528C113.043 52.2776 113.012 52.9142 112.618 54.9649C111.61 60.2177 110.081 64.0367 107.212 68.4677C105.394 71.2753 105.455 71.2977 105.303 67.7716C104.799 56.0773 103.065 49.5936 99.4739 45.9807C97.0617 43.5534 94.9112 42.8553 88.7459 42.4973C86.8655 42.3881 84.7034 42.1683 83.9411 42.0087C77.6303 40.6883 74.5493 35.1828 73.4989 23.3505C73.0826 18.6605 73.1596 8.98684 73.6701 1.85826L73.7793 0.333008L73.27 0.345212C72.9898 0.351867 72.3251 0.474624 71.7929 0.61809Z" fill="white"/>
</svg>
