<svg width="49" height="49" viewBox="0 0 49 49" fill="none" xmlns="http://www.w3.org/2000/svg">
<path d="M38.7335 39.0665C36.0695 39.0665 33.9335 41.2025 33.9335 43.8665C33.9335 45.1395 34.4392 46.3604 35.3394 47.2606C36.2396 48.1608 37.4605 48.6665 38.7335 48.6665C40.0065 48.6665 41.2274 48.1608 42.1276 47.2606C43.0278 46.3604 43.5335 45.1395 43.5335 43.8665C43.5335 42.5935 43.0278 41.3726 42.1276 40.4724C41.2274 39.5722 40.0065 39.0665 38.7335 39.0665ZM0.333496 0.666504V5.4665H5.1335L13.7735 23.6825L10.5095 29.5625C10.1495 30.2345 9.9335 31.0265 9.9335 31.8665C9.9335 33.1395 10.4392 34.3604 11.3394 35.2606C12.2396 36.1608 13.4605 36.6665 14.7335 36.6665H43.5335V31.8665H15.7415C15.5824 31.8665 15.4298 31.8033 15.3172 31.6908C15.2047 31.5782 15.1415 31.4256 15.1415 31.2665C15.1415 31.1465 15.1655 31.0505 15.2135 30.9785L17.3735 27.0665H35.2535C37.0535 27.0665 38.6375 26.0585 39.4535 24.5945L48.0455 9.0665C48.2135 8.6825 48.3335 8.2745 48.3335 7.8665C48.3335 7.22998 48.0806 6.61954 47.6306 6.16945C47.1805 5.71936 46.57 5.4665 45.9335 5.4665H10.4375L8.1815 0.666504M14.7335 39.0665C12.0695 39.0665 9.9335 41.2025 9.9335 43.8665C9.9335 45.1395 10.4392 46.3604 11.3394 47.2606C12.2396 48.1608 13.4605 48.6665 14.7335 48.6665C16.0065 48.6665 17.2274 48.1608 18.1276 47.2606C19.0278 46.3604 19.5335 45.1395 19.5335 43.8665C19.5335 42.5935 19.0278 41.3726 18.1276 40.4724C17.2274 39.5722 16.0065 39.0665 14.7335 39.0665Z" fill="white"/>
</svg>
