<svg width="86" height="109" viewBox="0 0 86 109" fill="none" xmlns="http://www.w3.org/2000/svg">
<path fill-rule="evenodd" clip-rule="evenodd" d="M47.1166 0.845509C44.5233 1.51731 39.4095 3.80933 36.2448 5.71849C27.2499 11.1443 21.6709 18.1724 19.7051 26.5539C19.339 28.1149 19.2082 28.9886 19.0299 31.0604C18.8968 32.6073 18.7909 33.2048 18.504 34.031L18.1448 35.0651L17.9054 34.6114C17.7737 34.3618 17.328 33.4001 16.915 32.4744C15.2691 28.785 13.6118 25.6967 12.0248 23.3615C10.8881 21.6889 10.2377 20.8982 9.03435 19.7256C7.81627 18.5387 7.07128 17.9786 5.98414 17.4324L5.14658 17.0116L5.10832 17.3775C5.0872 17.5786 5.15346 18.694 5.25543 19.8559C5.75157 25.509 5.82085 32.4992 5.40823 35.2645C5.14381 37.0362 4.40171 40.509 3.22599 45.4761C1.60119 52.3406 0.93477 56.0334 0.797067 58.9337C0.762068 59.6726 0.709927 60.579 0.681324 60.948C0.61024 61.8639 0.810099 64.8953 1.04326 66.439C1.75712 71.165 3.72128 76.0148 6.84584 80.7666C9.07382 84.1548 11.4422 86.7194 14.6204 89.1857C17.6896 91.5672 22.8268 94.1916 26.0856 95.0427C27.9388 95.5268 31.6086 96.0753 34.5939 96.3145C35.4568 96.3835 36.4721 96.468 36.8504 96.5023L37.5378 96.5645L37.5996 96.1822C37.6336 95.9719 37.6914 94.2065 37.7281 92.2592C37.7647 90.3118 37.8208 87.9872 37.8527 87.0933C37.9546 84.2318 38.0272 81.7129 38.095 78.677C38.1313 77.0489 38.1871 75.2202 38.2188 74.6131L38.2764 73.5096L37.2197 73.2482C35.2172 72.7528 33.2533 71.6643 31.9858 70.3474C27.7822 65.98 26.9656 57.9367 29.3547 44.4313C30.0288 40.6202 31.4038 33.8111 31.6509 33.0606C31.979 32.0635 32.1673 31.733 32.7589 31.1157C33.2551 30.5978 34.3663 29.9531 34.5153 30.0964C34.6305 30.2072 34.623 29.344 34.6392 44.1991L34.6542 58.0135H35.7358H36.8175L36.8575 45.331C36.8931 34.0413 36.9189 32.5814 37.0929 32.0374C37.342 31.2587 37.7825 30.5415 38.2947 30.0808C38.799 29.6272 39.9709 28.8757 40.174 28.8757C40.2961 28.8757 40.3265 31.782 40.3265 43.4309V57.986L41.347 58.0678C41.9083 58.1128 42.4242 58.1159 42.4935 58.0747C42.5799 58.0233 42.6195 53.4298 42.6195 43.4425V28.8853L43.2349 29.2532C44.184 29.8207 44.8276 30.4186 45.2023 31.0807C45.9672 32.4327 45.9263 31.6607 45.9679 45.5094L46.0059 58.1382L47.1187 58.1049L48.2314 58.0715L48.262 43.996C48.2789 36.2545 48.3226 29.9204 48.3592 29.9204C48.3958 29.9204 48.7507 30.1328 49.1481 30.3923C50.6404 31.3671 51.1902 32.5007 51.8663 35.9964C52.0289 36.8367 52.2398 37.9159 52.3352 38.3948C53.471 44.0991 53.9961 47.216 54.4669 51.0483C54.6855 52.8281 54.7315 53.842 54.7355 56.9687C54.7398 60.3718 54.7137 60.8894 54.4684 62.2503C54.0171 64.7546 53.6487 65.9267 52.7898 67.5907C51.2594 70.5559 48.8485 72.4448 45.591 73.2305L44.5349 73.4854L44.6015 75.7039C44.6382 76.9241 44.6972 80.9262 44.7327 84.5974C44.7682 88.2687 44.8224 92.3956 44.853 93.7683C44.8838 95.141 44.9434 99.0762 44.9857 102.513C45.0278 105.95 45.1035 108.719 45.1539 108.666C45.2042 108.613 46.4478 105.883 47.9172 102.599C49.3866 99.3146 50.6031 96.6141 50.6205 96.5974C50.6379 96.5806 51.5153 96.4841 52.5703 96.3827C55.8877 96.0638 57.3999 95.6633 59.9996 94.4148C64.6873 92.1636 68.6247 89.4246 72.4371 85.7631C79.988 78.5107 84.3112 69.987 85.7164 59.5807C86.0662 56.9897 86.0979 51.9463 85.7814 49.1909C85.4761 46.5311 85.0121 43.406 84.6781 41.7613C84.3295 40.0437 83.0042 35.3504 82.3917 33.6641C80.8868 29.5209 78.1047 24.6677 75.3378 21.3589C74.4251 20.2676 73.3073 19.1694 73.2072 19.2657C73.1806 19.2913 73.2106 19.6225 73.2737 20.0018C73.3368 20.3811 73.5357 21.8408 73.7156 23.2454C74.0102 25.544 74.0437 26.1882 74.0496 29.6883C74.0556 33.2829 74.0351 33.6826 73.7782 34.9702C73.1198 38.2685 72.1213 40.6665 70.2475 43.4488C69.0602 45.2117 69.1001 45.2257 69.0009 43.0117C68.6718 35.6687 67.5391 31.5976 65.194 29.329C63.6187 27.8049 62.2143 27.3665 58.188 27.1418C56.96 27.0732 55.548 26.9351 55.0501 26.835C50.9288 26.0059 48.9168 22.5489 48.2308 15.1193C47.9589 12.1744 48.0092 6.10031 48.3425 1.62422L48.4139 0.666504L48.0813 0.674167C47.8983 0.678346 47.4642 0.755426 47.1166 0.845509Z" fill="white"/>
</svg>
