<svg width="58" height="58" viewBox="0 0 58 58" fill="none" xmlns="http://www.w3.org/2000/svg">
<path d="M37.9842 30.8386L31.9 27.3267V14.5C31.9 13.7309 31.5945 12.9932 31.0506 12.4494C30.5068 11.9055 29.7691 11.6 29 11.6C28.2309 11.6 27.4933 11.9055 26.9494 12.4494C26.4055 12.9932 26.1 13.7309 26.1 14.5V29C26.1 29.509 26.234 30.0091 26.4886 30.4499C26.7431 30.8908 27.1092 31.2569 27.55 31.5114L35.0842 35.8614C35.4141 36.0548 35.7791 36.1811 36.158 36.2329C36.5369 36.2847 36.9224 36.261 37.2921 36.1633C37.6619 36.0655 38.0086 35.8956 38.3124 35.6633C38.6162 35.431 38.8711 35.1409 39.0623 34.8096C39.2536 34.4784 39.3774 34.1127 39.4267 33.7334C39.476 33.3541 39.4498 32.9689 39.3496 32.5998C39.2493 32.2307 39.0771 31.8851 38.8428 31.5828C38.6085 31.2805 38.3167 31.0276 37.9842 30.8386ZM29 0C23.2644 0 17.6575 1.70082 12.8885 4.88738C8.11945 8.07394 4.40245 12.6031 2.20751 17.9022C0.0125652 23.2012 -0.561731 29.0322 0.55724 34.6576C1.67621 40.2831 4.43819 45.4504 8.49391 49.5061C12.5496 53.5618 17.7169 56.3238 23.3424 57.4428C28.9678 58.5617 34.7988 57.9874 40.0978 55.7925C45.3969 53.5976 49.9261 49.8805 53.1126 45.1115C56.2992 40.3425 58 34.7356 58 29C57.9916 21.3113 54.9335 13.94 49.4968 8.50323C44.06 3.0665 36.6887 0.00844363 29 0ZM29 52.2C24.4115 52.2 19.926 50.8393 16.1108 48.2901C12.2956 45.7408 9.32196 42.1175 7.56601 37.8782C5.81005 33.639 5.35062 28.9743 6.24579 24.4739C7.14097 19.9735 9.35056 15.8397 12.5951 12.5951C15.8397 9.35054 19.9736 7.14096 24.4739 6.24578C28.9743 5.3506 33.639 5.81004 37.8783 7.56599C42.1175 9.32195 45.7408 12.2955 48.2901 16.1108C50.8393 19.926 52.2 24.4115 52.2 29C52.1923 35.1507 49.7456 41.0472 45.3964 45.3964C41.0472 49.7456 35.1507 52.1923 29 52.2Z" fill="black"/>
</svg>
