<svg width="132" height="173" viewBox="0 0 132 173" fill="none" xmlns="http://www.w3.org/2000/svg">
<path fill-rule="evenodd" clip-rule="evenodd" d="M71.793 0.61809C67.8221 1.68799 59.9915 5.33824 55.1455 8.37877C41.3722 17.0198 32.8293 28.2128 29.8192 41.5611C29.2585 44.0472 29.0582 45.4386 28.7853 48.7381C28.5814 51.2016 28.4194 52.1532 27.9799 53.469L27.4299 55.1159L27.0633 54.3934C26.8617 53.9959 26.1792 52.4644 25.5468 50.99C23.0265 45.1143 20.4889 40.196 18.0587 36.4769C16.3181 33.8132 15.3222 32.5538 13.4796 30.6863C11.6144 28.7961 10.4736 27.9041 8.80894 27.0342L7.52643 26.364L7.46784 26.9468C7.4355 27.2672 7.53696 29.0435 7.69311 30.8939C8.45283 39.897 8.55891 51.0295 7.92708 55.4335C7.52218 58.2552 6.38584 63.7858 4.58552 71.6964C2.09756 82.6287 1.07709 88.5099 0.866238 93.129C0.812646 94.3057 0.732804 95.7492 0.689006 96.3368C0.580159 97.7955 0.886192 102.623 1.24323 105.082C2.33632 112.608 5.34394 120.332 10.1284 127.9C13.54 133.296 17.1665 137.38 22.0332 141.308C26.7329 145.101 34.5993 149.28 39.5892 150.636C42.427 151.407 48.0464 152.28 52.6176 152.661C53.939 152.771 55.4937 152.906 56.0729 152.96L57.1255 153.059L57.2201 152.451C57.2722 152.116 57.3607 149.304 57.4169 146.203C57.4729 143.101 57.5588 139.399 57.6076 137.976C57.7638 133.418 57.8748 129.407 57.9787 124.572C58.0343 121.979 58.1197 119.067 58.1683 118.1L58.2564 116.342L56.6383 115.926C53.5721 115.137 50.5649 113.404 48.6239 111.306C42.1872 104.351 40.9368 91.541 44.5951 70.0325C45.6274 63.9629 47.7328 53.1188 48.1111 51.9236C48.6136 50.3357 48.9019 49.8093 49.8078 48.8261C50.5677 48.0014 52.2691 46.9746 52.4973 47.2029C52.6736 47.3793 52.6622 46.0045 52.6869 69.6628L52.71 91.6634H54.3662H56.0226L56.0837 71.4653C56.1383 53.4855 56.1778 51.1604 56.4443 50.2941C56.8257 49.0539 57.5002 47.9117 58.2845 47.1779C59.0566 46.4556 60.8512 45.2587 61.1622 45.2587C61.3491 45.2587 61.3956 49.8873 61.3956 68.4392V91.6196L62.9583 91.7499C63.8178 91.8215 64.6078 91.8265 64.7139 91.7608C64.8462 91.6789 64.9068 84.3634 64.9068 68.4577V45.274L65.8491 45.8599C67.3024 46.7638 68.2879 47.7159 68.8617 48.7705C70.033 50.9236 69.9704 49.6941 70.0341 71.7495L70.0923 91.862L71.7962 91.8089L73.5 91.7559L73.547 69.3392C73.5729 57.0102 73.6398 46.9226 73.6958 46.9226C73.7517 46.9226 74.2952 47.2608 74.9038 47.6741C77.1888 49.2266 78.0308 51.0319 79.066 56.5992C79.315 57.9374 79.638 59.6562 79.784 60.4188C81.5231 69.5034 82.3272 74.4674 83.0481 80.5707C83.383 83.4052 83.4534 85.02 83.4595 89.9995C83.4661 95.4192 83.426 96.2436 83.0505 98.4109C82.3594 102.399 81.7953 104.266 80.4801 106.916C78.1367 111.638 74.4449 114.647 69.457 115.898L67.8398 116.304L67.9418 119.837C67.998 121.78 68.0884 128.154 68.1427 134.001C68.197 139.848 68.28 146.42 68.3269 148.606C68.3741 150.792 68.4654 157.059 68.53 162.533C68.5945 168.007 68.7104 172.416 68.7876 172.332C68.8647 172.247 70.7689 167.899 73.019 162.669C75.2689 157.439 77.1317 153.138 77.1584 153.112C77.185 153.085 78.5285 152.931 80.144 152.77C85.2238 152.262 87.5393 151.624 91.5201 149.636C98.6981 146.051 104.727 141.688 110.565 135.857C122.127 124.307 128.747 110.732 130.899 94.1593C131.435 90.033 131.483 82.0009 130.999 77.6126C130.531 73.3766 129.82 68.3997 129.309 65.7803C128.775 63.0448 126.746 55.5703 125.808 52.8848C123.504 46.2863 119.244 38.5572 115.007 33.2876C113.609 31.5495 111.898 29.8006 111.744 29.954C111.704 29.9947 111.749 30.5221 111.846 31.1263C111.943 31.7303 112.247 34.055 112.523 36.292C112.974 39.9527 113.025 40.9787 113.034 46.5528C113.043 52.2776 113.012 52.9142 112.619 54.9649C111.61 60.2177 110.081 64.0367 107.212 68.4677C105.394 71.2753 105.455 71.2977 105.303 67.7716C104.799 56.0773 103.065 49.5936 99.4741 45.9807C97.0619 43.5534 94.9113 42.8553 88.746 42.4973C86.8657 42.3881 84.7035 42.1683 83.9412 42.0087C77.6305 40.6883 74.5495 35.1828 73.4991 23.3505C73.0828 18.6605 73.1598 8.98684 73.6703 1.85826L73.7795 0.333008L73.2702 0.345212C72.99 0.351867 72.3253 0.474624 71.793 0.61809Z" fill="white"/>
</svg>
