<svg width="49" height="49" viewBox="0 0 49 49" fill="none" xmlns="http://www.w3.org/2000/svg">
<path d="M38.7334 39.0667C36.0694 39.0667 33.9334 41.2027 33.9334 43.8667C33.9334 45.1397 34.4391 46.3606 35.3393 47.2608C36.2394 48.161 37.4603 48.6667 38.7334 48.6667C40.0064 48.6667 41.2273 48.161 42.1275 47.2608C43.0277 46.3606 43.5334 45.1397 43.5334 43.8667C43.5334 42.5936 43.0277 41.3728 42.1275 40.4726C41.2273 39.5724 40.0064 39.0667 38.7334 39.0667ZM0.333374 0.666687V5.46669H5.13337L13.7734 23.6827L10.5094 29.5627C10.1494 30.2347 9.93337 31.0267 9.93337 31.8667C9.93337 33.1397 10.4391 34.3606 11.3393 35.2608C12.2394 36.161 13.4603 36.6667 14.7334 36.6667H43.5334V31.8667H15.7414C15.5822 31.8667 15.4296 31.8035 15.3171 31.691C15.2046 31.5784 15.1414 31.4258 15.1414 31.2667C15.1414 31.1467 15.1654 31.0507 15.2134 30.9787L17.3734 27.0667H35.2534C37.0534 27.0667 38.6374 26.0587 39.4534 24.5947L48.0454 9.06669C48.2134 8.68269 48.3334 8.27469 48.3334 7.86669C48.3334 7.23017 48.0805 6.61972 47.6304 6.16963C47.1803 5.71954 46.5699 5.46669 45.9334 5.46669H10.4374L8.18137 0.666687M14.7334 39.0667C12.0694 39.0667 9.93337 41.2027 9.93337 43.8667C9.93337 45.1397 10.4391 46.3606 11.3393 47.2608C12.2394 48.161 13.4603 48.6667 14.7334 48.6667C16.0064 48.6667 17.2273 48.161 18.1275 47.2608C19.0277 46.3606 19.5334 45.1397 19.5334 43.8667C19.5334 42.5936 19.0277 41.3728 18.1275 40.4726C17.2273 39.5724 16.0064 39.0667 14.7334 39.0667Z" fill="white"/>
</svg>
