<svg width="49" height="49" viewBox="0 0 49 49" fill="none" xmlns="http://www.w3.org/2000/svg">
<path d="M38.7334 39.0665C36.0694 39.0665 33.9334 41.2025 33.9334 43.8665C33.9334 45.1395 34.4391 46.3604 35.3393 47.2606C36.2394 48.1608 37.4603 48.6665 38.7334 48.6665C40.0064 48.6665 41.2273 48.1608 42.1275 47.2606C43.0277 46.3604 43.5334 45.1395 43.5334 43.8665C43.5334 42.5935 43.0277 41.3726 42.1275 40.4724C41.2273 39.5722 40.0064 39.0665 38.7334 39.0665ZM0.333374 0.666504V5.4665H5.13337L13.7734 23.6825L10.5094 29.5625C10.1494 30.2345 9.93337 31.0265 9.93337 31.8665C9.93337 33.1395 10.4391 34.3604 11.3393 35.2606C12.2394 36.1608 13.4603 36.6665 14.7334 36.6665H43.5334V31.8665H15.7414C15.5822 31.8665 15.4296 31.8033 15.3171 31.6908C15.2046 31.5782 15.1414 31.4256 15.1414 31.2665C15.1414 31.1465 15.1654 31.0505 15.2134 30.9785L17.3734 27.0665H35.2534C37.0534 27.0665 38.6374 26.0585 39.4534 24.5945L48.0454 9.0665C48.2134 8.6825 48.3334 8.2745 48.3334 7.8665C48.3334 7.22998 48.0805 6.61954 47.6304 6.16945C47.1803 5.71936 46.5699 5.4665 45.9334 5.4665H10.4374L8.18137 0.666504M14.7334 39.0665C12.0694 39.0665 9.93337 41.2025 9.93337 43.8665C9.93337 45.1395 10.4391 46.3604 11.3393 47.2606C12.2394 48.1608 13.4603 48.6665 14.7334 48.6665C16.0064 48.6665 17.2273 48.1608 18.1275 47.2606C19.0277 46.3604 19.5334 45.1395 19.5334 43.8665C19.5334 42.5935 19.0277 41.3726 18.1275 40.4724C17.2273 39.5722 16.0064 39.0665 14.7334 39.0665Z" fill="white"/>
</svg>
