<svg width="86" height="109" viewBox="0 0 86 109" fill="none" xmlns="http://www.w3.org/2000/svg">
<path fill-rule="evenodd" clip-rule="evenodd" d="M47.1165 0.845509C44.5232 1.51731 39.4094 3.80933 36.2447 5.71849C27.2498 11.1443 21.6708 18.1724 19.7051 26.5539C19.3389 28.1149 19.2081 28.9886 19.0298 31.0604C18.8967 32.6073 18.7909 33.2048 18.5039 34.031L18.1447 35.0651L17.9053 34.6114C17.7736 34.3618 17.3279 33.4001 16.9149 32.4744C15.269 28.785 13.6117 25.6967 12.0247 23.3615C10.888 21.6889 10.2376 20.8982 9.03426 19.7256C7.81617 18.5387 7.07118 17.9786 5.98405 17.4324L5.14649 17.0116L5.10823 17.3775C5.08711 17.5786 5.15336 18.694 5.25534 19.8559C5.75148 25.509 5.82076 32.4992 5.40814 35.2645C5.14371 37.0362 4.40161 40.509 3.22589 45.4761C1.6011 52.3406 0.934678 56.0334 0.796976 58.9337C0.761977 59.6726 0.709835 60.579 0.681232 60.948C0.610149 61.8639 0.810007 64.8953 1.04317 66.439C1.75703 71.165 3.72119 76.0148 6.84574 80.7666C9.07372 84.1548 11.4421 86.7194 14.6203 89.1857C17.6895 91.5672 22.8267 94.1916 26.0855 95.0427C27.9387 95.5268 31.6085 96.0753 34.5938 96.3145C35.4567 96.3835 36.472 96.468 36.8503 96.5023L37.5377 96.5645L37.5995 96.1822C37.6335 95.9719 37.6913 94.2065 37.728 92.2592C37.7646 90.3118 37.8207 87.9872 37.8526 87.0933C37.9545 84.2318 38.0271 81.7129 38.0949 78.677C38.1312 77.0489 38.187 75.2202 38.2187 74.6131L38.2763 73.5096L37.2196 73.2482C35.2172 72.7528 33.2532 71.6643 31.9857 70.3474C27.7821 65.98 26.9655 57.9367 29.3546 44.4313C30.0288 40.6202 31.4037 33.8111 31.6508 33.0606C31.9789 32.0635 32.1672 31.733 32.7588 31.1157C33.255 30.5978 34.3662 29.9531 34.5152 30.0964C34.6304 30.2072 34.6229 29.344 34.6391 44.1991L34.6542 58.0135H35.7357H36.8174L36.8574 45.331C36.893 34.0413 36.9188 32.5814 37.0928 32.0374C37.3419 31.2587 37.7824 30.5415 38.2946 30.0808C38.7989 29.6272 39.9708 28.8757 40.174 28.8757C40.296 28.8757 40.3264 31.782 40.3264 43.4309V57.986L41.3469 58.0678C41.9082 58.1128 42.4241 58.1159 42.4934 58.0747C42.5798 58.0233 42.6194 53.4298 42.6194 43.4425V28.8853L43.2348 29.2532C44.1839 29.8207 44.8275 30.4186 45.2022 31.0807C45.9671 32.4327 45.9262 31.6607 45.9678 45.5094L46.0059 58.1382L47.1186 58.1049L48.2313 58.0715L48.262 43.996C48.2789 36.2545 48.3225 29.9204 48.3591 29.9204C48.3957 29.9204 48.7506 30.1328 49.148 30.3923C50.6403 31.3671 51.1902 32.5007 51.8662 35.9964C52.0288 36.8367 52.2398 37.9159 52.3351 38.3948C53.4709 44.0991 53.996 47.216 54.4668 51.0483C54.6854 52.8281 54.7314 53.842 54.7354 56.9687C54.7398 60.3718 54.7136 60.8894 54.4683 62.2503C54.017 64.7546 53.6486 65.9267 52.7897 67.5907C51.2593 70.5559 48.8484 72.4448 45.5909 73.2305L44.5348 73.4854L44.6014 75.7039C44.6381 76.9241 44.6971 80.9262 44.7326 84.5974C44.7681 88.2687 44.8223 92.3956 44.8529 93.7683C44.8837 95.141 44.9433 99.0762 44.9856 102.513C45.0277 105.95 45.1034 108.719 45.1538 108.666C45.2041 108.613 46.4477 105.883 47.9171 102.599C49.3865 99.3146 50.603 96.6141 50.6204 96.5974C50.6378 96.5806 51.5152 96.4841 52.5702 96.3827C55.8876 96.0638 57.3998 95.6633 59.9995 94.4148C64.6872 92.1636 68.6247 89.4246 72.437 85.7631C79.9879 78.5107 84.3111 69.987 85.7163 59.5807C86.0662 56.9897 86.0978 51.9463 85.7813 49.1909C85.476 46.5311 85.012 43.406 84.678 41.7613C84.3294 40.0437 83.0041 35.3504 82.3916 33.6641C80.8867 29.5209 78.1046 24.6677 75.3377 21.3589C74.4251 20.2676 73.3073 19.1694 73.2071 19.2657C73.1805 19.2913 73.2105 19.6225 73.2736 20.0018C73.3367 20.3811 73.5356 21.8408 73.7155 23.2454C74.0101 25.544 74.0436 26.1882 74.0495 29.6883C74.0555 33.2829 74.035 33.6826 73.7781 34.9702C73.1197 38.2685 72.1212 40.6665 70.2474 43.4488C69.0601 45.2117 69.1 45.2257 69.0008 43.0117C68.6717 35.6687 67.539 31.5976 65.1939 29.329C63.6186 27.8049 62.2142 27.3665 58.1879 27.1418C56.9599 27.0732 55.5479 26.9351 55.05 26.835C50.9287 26.0059 48.9167 22.5489 48.2307 15.1193C47.9588 12.1744 48.0091 6.10031 48.3425 1.62422L48.4138 0.666504L48.0812 0.674167C47.8982 0.678346 47.4641 0.755426 47.1165 0.845509Z" fill="white"/>
</svg>
