<svg width="42" height="42" viewBox="0 0 42 42" fill="none" xmlns="http://www.w3.org/2000/svg">
<path d="M32.5691 42H35.7382C37.3418 42 38.6591 40.7591 38.85 39.1936L42 7.73182H32.4545V0H28.6936V7.73182H19.2055L19.7782 12.1991C23.0427 13.0964 26.0973 14.7191 27.93 16.5136C30.6791 19.2245 32.5691 22.0309 32.5691 26.6127V42ZM0 40.0909V38.1818H28.6936V40.0909C28.6936 41.1218 27.8345 42 26.7273 42H1.90909C0.859091 42 0 41.1218 0 40.0909ZM28.6936 26.7273C28.6936 11.4545 0 11.4545 0 26.7273H28.6936ZM0 30.5455H28.6364V34.3636H0V30.5455Z" fill="#FF8F28"/>
</svg>
