<svg width="38" height="43" viewBox="0 0 38 43" fill="none" xmlns="http://www.w3.org/2000/svg">
<path opacity="0.3" d="M13.5121 0.455614C14.1737 -0.157441 15.2 -0.149043 15.8616 0.464012C18.2027 2.6391 20.3996 4.98215 22.4522 7.51835C23.3853 6.30904 24.4455 4.99055 25.5906 3.9156C26.2607 3.29415 27.2955 3.29415 27.9656 3.924C30.9004 6.69535 33.3857 10.3569 35.133 13.8337C36.8549 17.2601 38 20.762 38 23.2311C38 33.9469 29.5348 43 19 43C8.34643 43 0 33.9385 0 23.2227C0 19.9978 1.50982 16.0591 3.85089 12.1625C6.21741 8.20699 9.55938 4.08356 13.5121 0.455614ZM19.1442 34.9379C21.2902 34.9379 23.1902 34.35 24.9799 33.1743C28.5509 30.7053 29.5094 25.7673 27.3634 21.8874C26.9817 21.1315 26.0062 21.0812 25.4549 21.7194L23.3174 24.18C22.7576 24.8183 21.7482 24.8015 21.2223 24.138C19.8228 22.3745 17.3205 19.2252 15.8955 17.4364C15.3612 16.7646 14.3433 16.7562 13.8004 17.428C10.9335 20.9972 9.49152 23.2478 9.49152 25.7757C9.5 31.5283 13.792 34.9379 19.1442 34.9379Z" fill="#FF8F28"/>
</svg>
