<svg width="26" height="42" viewBox="0 0 26 42" fill="none" xmlns="http://www.w3.org/2000/svg">
<path d="M16.8951 7.87385C19.0479 7.87385 20.7945 6.11043 20.7945 3.93692C20.7945 1.76341 19.0479 0 16.8951 0C14.7424 0 12.9958 1.76341 12.9958 3.93692C12.9958 6.11043 14.7424 7.87385 16.8951 7.87385ZM24.5719 20.1029L22.6791 19.1351L21.8911 16.7237C20.697 13.0657 17.3663 10.5067 13.5888 10.4985C10.6643 10.4903 9.04769 11.3269 6.00945 12.5653C4.25475 13.2789 2.81687 14.6322 1.97201 16.3546L1.42773 17.4701C0.794085 18.766 1.30587 20.3408 2.58128 20.9887C3.84857 21.6367 5.39206 21.1118 6.03382 19.8158L6.57811 18.7004C6.86243 18.1263 7.33361 17.6751 7.91851 17.4373L10.0956 16.5515L8.86085 21.53C8.43842 23.236 8.89334 25.0487 10.0713 26.3528L14.9373 31.7168C15.5222 32.3648 15.9365 33.144 16.1477 33.9888L17.6344 40.0008C17.9837 41.4033 19.3972 42.2645 20.7863 41.9118C22.1755 41.5591 23.0285 40.132 22.6791 38.7295L20.8757 31.4298C20.6645 30.585 20.2502 29.7976 19.6653 29.1578L15.969 25.0815L17.3663 19.4468L17.8131 20.8001C18.2436 22.1206 19.1697 23.2114 20.3883 23.8348L22.2811 24.8026C23.5484 25.4506 25.0919 24.9256 25.7336 23.6297C26.3591 22.342 25.8474 20.7509 24.5719 20.1029ZM5.97696 31.643C5.717 32.3074 5.32707 32.9061 4.8234 33.4064L0.76159 37.5156C-0.253863 38.5408 -0.253863 40.2058 0.76159 41.2311C1.77704 42.2563 3.41802 42.2563 4.43347 41.2311L9.2589 36.3591C9.75445 35.8588 10.1444 35.2601 10.4125 34.5957L11.5092 31.8235C7.01678 26.8777 8.36531 28.3951 7.65855 27.419L5.97696 31.643Z" fill="#3C3C3C"/>
</svg>
