<svg width="86" height="109" viewBox="0 0 86 109" fill="none" xmlns="http://www.w3.org/2000/svg">
<path fill-rule="evenodd" clip-rule="evenodd" d="M47.1166 0.845692C44.5233 1.51749 39.4095 3.80951 36.2448 5.71868C27.2499 11.1445 21.6709 18.1726 19.7051 26.5541C19.339 28.1151 19.2082 28.9888 19.0299 31.0606C18.8968 32.6075 18.7909 33.205 18.504 34.0311L18.1448 35.0653L17.9054 34.6116C17.7737 34.362 17.328 33.4003 16.915 32.4745C15.2691 28.7852 13.6118 25.6969 12.0248 23.3617C10.8881 21.6891 10.2377 20.8983 9.03435 19.7257C7.81627 18.5389 7.07128 17.9787 5.98414 17.4326L5.14658 17.0117L5.10832 17.3777C5.0872 17.5788 5.15346 18.6942 5.25543 19.8561C5.75157 25.5092 5.82085 32.4994 5.40823 35.2647C5.14381 37.0364 4.40171 40.5092 3.22599 45.4763C1.60119 52.3407 0.93477 56.0336 0.797067 58.9339C0.762068 59.6728 0.709927 60.5792 0.681324 60.9481C0.61024 61.8641 0.810099 64.8954 1.04326 66.4392C1.75712 71.1652 3.72128 76.015 6.84584 80.7668C9.07382 84.155 11.4422 86.7196 14.6204 89.1859C17.6896 91.5674 22.8268 94.1918 26.0856 95.0429C27.9388 95.527 31.6086 96.0755 34.5939 96.3146C35.4568 96.3837 36.4721 96.4682 36.8504 96.5025L37.5378 96.5647L37.5996 96.1824C37.6336 95.9721 37.6914 94.2067 37.7281 92.2594C37.7647 90.312 37.8208 87.9874 37.8527 87.0935C37.9546 84.2319 38.0272 81.7131 38.095 78.6772C38.1313 77.0491 38.1871 75.2203 38.2188 74.6133L38.2764 73.5098L37.2197 73.2484C35.2172 72.753 33.2533 71.6645 31.9858 70.3476C27.7822 65.9802 26.9656 57.9368 29.3547 44.4315C30.0288 40.6204 31.4038 33.8113 31.6509 33.0608C31.979 32.0637 32.1673 31.7332 32.7589 31.1159C33.2551 30.598 34.3663 29.9532 34.5153 30.0966C34.6305 30.2074 34.623 29.3441 34.6392 44.1993L34.6542 58.0137H35.7358H36.8175L36.8575 45.3312C36.8931 34.0415 36.9189 32.5816 37.0929 32.0376C37.342 31.2589 37.7825 30.5417 38.2947 30.0809C38.799 29.6274 39.9709 28.8758 40.174 28.8758C40.2961 28.8758 40.3265 31.7822 40.3265 43.4311V57.9862L41.347 58.068C41.9083 58.1129 42.4242 58.1161 42.4935 58.0749C42.5799 58.0234 42.6195 53.43 42.6195 43.4427V28.8855L43.2349 29.2534C44.184 29.8209 44.8276 30.4188 45.2023 31.0809C45.9672 32.4329 45.9263 31.6609 45.9679 45.5096L46.0059 58.1384L47.1187 58.105L48.2314 58.0717L48.262 43.9962C48.2789 36.2547 48.3226 29.9206 48.3592 29.9206C48.3958 29.9206 48.7507 30.1329 49.1481 30.3925C50.6404 31.3673 51.1902 32.5009 51.8663 35.9966C52.0289 36.8369 52.2398 37.9161 52.3352 38.395C53.471 44.0993 53.9961 47.2162 54.4669 51.0485C54.6855 52.8283 54.7315 53.8422 54.7355 56.9689C54.7398 60.372 54.7137 60.8896 54.4684 62.2505C54.0171 64.7547 53.6487 65.9269 52.7898 67.5909C51.2594 70.5561 48.8485 72.4449 45.591 73.2307L44.5349 73.4855L44.6015 75.7041C44.6382 76.9243 44.6972 80.9264 44.7327 84.5976C44.7682 88.2689 44.8224 92.3958 44.853 93.7685C44.8838 95.1412 44.9434 99.0763 44.9857 102.513C45.0278 105.95 45.1035 108.719 45.1539 108.666C45.2042 108.613 46.4478 105.883 47.9172 102.599C49.3866 99.3148 50.6031 96.6143 50.6205 96.5975C50.6379 96.5808 51.5153 96.4842 52.5703 96.3829C55.8877 96.064 57.3999 95.6635 59.9996 94.415C64.6873 92.1638 68.6247 89.4248 72.4371 85.7633C79.988 78.5108 84.3112 69.9871 85.7164 59.5809C86.0662 56.9899 86.0979 51.9465 85.7814 49.1911C85.4761 46.5313 85.0121 43.4062 84.6781 41.7615C84.3295 40.0439 83.0042 35.3506 82.3917 33.6643C80.8868 29.5211 78.1047 24.6679 75.3378 21.3591C74.4251 20.2678 73.3073 19.1696 73.2072 19.2659C73.1806 19.2915 73.2106 19.6227 73.2737 20.002C73.3368 20.3813 73.5357 21.841 73.7156 23.2456C74.0102 25.5441 74.0437 26.1884 74.0496 29.6884C74.0556 33.2831 74.0351 33.6828 73.7782 34.9704C73.1198 38.2687 72.1213 40.6667 70.2475 43.4489C69.0602 45.2118 69.1001 45.2259 69.0009 43.0119C68.6718 35.6689 67.5391 31.5977 65.194 29.3292C63.6187 27.8051 62.2143 27.3667 58.188 27.142C56.96 27.0734 55.548 26.9353 55.0501 26.8351C50.9288 26.0061 48.9168 22.5491 48.2308 15.1195C47.9589 12.1746 48.0092 6.10049 48.3425 1.62441L48.4139 0.666687L48.0813 0.67435C47.8983 0.678529 47.4642 0.755609 47.1166 0.845692Z" fill="white"/>
</svg>
