<svg width="49" height="49" viewBox="0 0 49 49" fill="none" xmlns="http://www.w3.org/2000/svg">
<path d="M38.7335 39.0667C36.0695 39.0667 33.9335 41.2027 33.9335 43.8667C33.9335 45.1398 34.4392 46.3607 35.3394 47.2608C36.2396 48.161 37.4605 48.6667 38.7335 48.6667C40.0065 48.6667 41.2274 48.161 42.1276 47.2608C43.0278 46.3607 43.5335 45.1398 43.5335 43.8667C43.5335 42.5937 43.0278 41.3728 42.1276 40.4726C41.2274 39.5724 40.0065 39.0667 38.7335 39.0667ZM0.333496 0.666718V5.46672H5.1335L13.7735 23.6827L10.5095 29.5627C10.1495 30.2347 9.9335 31.0267 9.9335 31.8667C9.9335 33.1398 10.4392 34.3607 11.3394 35.2608C12.2396 36.161 13.4605 36.6667 14.7335 36.6667H43.5335V31.8667H15.7415C15.5824 31.8667 15.4298 31.8035 15.3172 31.691C15.2047 31.5785 15.1415 31.4258 15.1415 31.2667C15.1415 31.1467 15.1655 31.0507 15.2135 30.9787L17.3735 27.0667H35.2535C37.0535 27.0667 38.6375 26.0587 39.4535 24.5947L48.0455 9.06672C48.2135 8.68272 48.3335 8.27472 48.3335 7.86672C48.3335 7.2302 48.0806 6.61975 47.6306 6.16966C47.1805 5.71957 46.57 5.46672 45.9335 5.46672H10.4375L8.1815 0.666718M14.7335 39.0667C12.0695 39.0667 9.9335 41.2027 9.9335 43.8667C9.9335 45.1398 10.4392 46.3607 11.3394 47.2608C12.2396 48.161 13.4605 48.6667 14.7335 48.6667C16.0065 48.6667 17.2274 48.161 18.1276 47.2608C19.0278 46.3607 19.5335 45.1398 19.5335 43.8667C19.5335 42.5937 19.0278 41.3728 18.1276 40.4726C17.2274 39.5724 16.0065 39.0667 14.7335 39.0667Z" fill="white"/>
</svg>
