<svg width="86" height="109" viewBox="0 0 86 109" fill="none" xmlns="http://www.w3.org/2000/svg">
<path fill-rule="evenodd" clip-rule="evenodd" d="M47.1165 0.845692C44.5232 1.51749 39.4094 3.80951 36.2447 5.71868C27.2498 11.1445 21.6708 18.1726 19.7051 26.5541C19.3389 28.1151 19.2081 28.9888 19.0298 31.0606C18.8967 32.6075 18.7909 33.205 18.5039 34.0312L18.1447 35.0653L17.9053 34.6116C17.7736 34.362 17.3279 33.4003 16.9149 32.4745C15.269 28.7852 13.6117 25.6969 12.0247 23.3617C10.888 21.6891 10.2376 20.8983 9.03426 19.7257C7.81617 18.5389 7.07118 17.9787 5.98405 17.4326L5.14649 17.0117L5.10823 17.3777C5.08711 17.5788 5.15336 18.6942 5.25534 19.8561C5.75148 25.5092 5.82076 32.4994 5.40814 35.2647C5.14371 37.0364 4.40161 40.5092 3.22589 45.4763C1.6011 52.3407 0.934678 56.0336 0.796976 58.9339C0.761977 59.6728 0.709835 60.5792 0.681232 60.9481C0.610149 61.8641 0.810007 64.8954 1.04317 66.4392C1.75703 71.1652 3.72119 76.015 6.84574 80.7668C9.07372 84.155 11.4421 86.7196 14.6203 89.1859C17.6895 91.5674 22.8267 94.1918 26.0855 95.0429C27.9387 95.527 31.6085 96.0755 34.5938 96.3146C35.4567 96.3837 36.472 96.4682 36.8503 96.5025L37.5377 96.5647L37.5995 96.1824C37.6335 95.9721 37.6913 94.2067 37.728 92.2594C37.7646 90.312 37.8207 87.9874 37.8526 87.0935C37.9545 84.2319 38.0271 81.7131 38.0949 78.6772C38.1312 77.0491 38.187 75.2204 38.2187 74.6133L38.2763 73.5098L37.2196 73.2484C35.2172 72.753 33.2532 71.6645 31.9857 70.3476C27.7821 65.9802 26.9655 57.9368 29.3546 44.4315C30.0287 40.6204 31.4037 33.8113 31.6508 33.0608C31.9789 32.0637 32.1672 31.7332 32.7588 31.1159C33.255 30.598 34.3662 29.9532 34.5152 30.0966C34.6304 30.2074 34.6229 29.3441 34.6391 44.1993L34.6542 58.0137H35.7357H36.8174L36.8574 45.3312C36.893 34.0415 36.9188 32.5816 37.0928 32.0376C37.3419 31.2589 37.7824 30.5417 38.2946 30.0809C38.7989 29.6274 39.9708 28.8758 40.174 28.8758C40.296 28.8758 40.3264 31.7822 40.3264 43.4311V57.9862L41.3469 58.068C41.9082 58.1129 42.4241 58.1161 42.4934 58.0749C42.5798 58.0234 42.6194 53.43 42.6194 43.4427V28.8855L43.2348 29.2534C44.1839 29.8209 44.8275 30.4188 45.2022 31.0809C45.9671 32.4329 45.9262 31.6609 45.9678 45.5096L46.0059 58.1384L47.1186 58.105L48.2313 58.0717L48.262 43.9962C48.2789 36.2547 48.3225 29.9206 48.3591 29.9206C48.3957 29.9206 48.7506 30.1329 49.148 30.3925C50.6403 31.3673 51.1902 32.5009 51.8662 35.9966C52.0288 36.8369 52.2398 37.9161 52.3351 38.395C53.4709 44.0993 53.996 47.2162 54.4668 51.0485C54.6855 52.8283 54.7314 53.8422 54.7354 56.9689C54.7398 60.372 54.7136 60.8896 54.4683 62.2505C54.017 64.7547 53.6486 65.9269 52.7897 67.5909C51.2593 70.5561 48.8484 72.4449 45.5909 73.2307L44.5348 73.4855L44.6014 75.7041C44.6381 76.9243 44.6971 80.9264 44.7326 84.5976C44.7681 88.2689 44.8223 92.3958 44.8529 93.7685C44.8837 95.1412 44.9433 99.0763 44.9856 102.513C45.0277 105.95 45.1034 108.719 45.1538 108.666C45.2041 108.613 46.4477 105.883 47.9171 102.599C49.3865 99.3148 50.603 96.6143 50.6204 96.5975C50.6378 96.5808 51.5152 96.4842 52.5702 96.3829C55.8876 96.064 57.3998 95.6635 59.9995 94.415C64.6872 92.1638 68.6247 89.4248 72.437 85.7633C79.9879 78.5108 84.3111 69.9871 85.7163 59.5809C86.0662 56.9899 86.0978 51.9465 85.7813 49.1911C85.476 46.5313 85.012 43.4062 84.678 41.7615C84.3294 40.0439 83.0041 35.3506 82.3916 33.6643C80.8867 29.5211 78.1046 24.6679 75.3377 21.3591C74.4251 20.2678 73.3073 19.1696 73.2071 19.2659C73.1805 19.2915 73.2105 19.6227 73.2736 20.002C73.3367 20.3813 73.5356 21.841 73.7155 23.2456C74.0101 25.5441 74.0436 26.1884 74.0495 29.6884C74.0555 33.2831 74.035 33.6828 73.7781 34.9704C73.1197 38.2687 72.1212 40.6667 70.2474 43.4489C69.0601 45.2118 69.1 45.2259 69.0008 43.0119C68.6717 35.6689 67.539 31.5977 65.1939 29.3292C63.6186 27.8051 62.2142 27.3667 58.1879 27.142C56.9599 27.0734 55.5479 26.9353 55.05 26.8351C50.9287 26.0061 48.9167 22.5491 48.2307 15.1195C47.9588 12.1746 48.0091 6.10049 48.3425 1.62441L48.4138 0.666687L48.0812 0.67435C47.8982 0.678529 47.4641 0.755609 47.1165 0.845692Z" fill="white"/>
</svg>
