<svg width="86" height="109" viewBox="0 0 86 109" fill="none" xmlns="http://www.w3.org/2000/svg">
<path fill-rule="evenodd" clip-rule="evenodd" d="M47.1164 0.845509C44.5231 1.51731 39.4093 3.80933 36.2445 5.71849C27.2497 11.1443 21.6706 18.1724 19.7049 26.5539C19.3387 28.1149 19.2079 28.9886 19.0297 31.0604C18.8965 32.6073 18.7907 33.2048 18.5037 34.031L18.1446 35.0651L17.9051 34.6114C17.7734 34.3618 17.3277 33.4001 16.9148 32.4744C15.2689 28.785 13.6116 25.6967 12.0246 23.3615C10.8878 21.6889 10.2375 20.8982 9.0341 19.7256C7.81602 18.5387 7.07103 17.9786 5.98389 17.4324L5.14633 17.0116L5.10808 17.3775C5.08696 17.5786 5.15321 18.694 5.25519 19.8559C5.75133 25.509 5.82061 32.4992 5.40798 35.2645C5.14356 37.0362 4.40146 40.509 3.22574 45.4761C1.60095 52.3406 0.934525 56.0334 0.796823 58.9337C0.761824 59.6726 0.709682 60.579 0.68108 60.948C0.609996 61.8639 0.809854 64.8953 1.04302 66.439C1.75688 71.165 3.72104 76.0148 6.84559 80.7666C9.07357 84.1548 11.4419 86.7194 14.6202 89.1857C17.6893 91.5672 22.8266 94.1916 26.0853 95.0427C27.9386 95.5268 31.6084 96.0753 34.5937 96.3145C35.4566 96.3835 36.4719 96.468 36.8501 96.5023L37.5375 96.5645L37.5993 96.1822C37.6334 95.9719 37.6912 94.2065 37.7279 92.2592C37.7644 90.3118 37.8206 87.9872 37.8524 87.0933C37.9544 84.2318 38.0269 81.7129 38.0948 78.677C38.1311 77.0489 38.1868 75.2202 38.2186 74.6131L38.2761 73.5096L37.2194 73.2482C35.217 72.7528 33.2531 71.6643 31.9855 70.3474C27.7819 65.98 26.9654 57.9367 29.3544 44.4313C30.0286 40.6202 31.4036 33.8111 31.6506 33.0606C31.9788 32.0635 32.167 31.733 32.7586 31.1157C33.2549 30.5978 34.366 29.9531 34.5151 30.0964C34.6302 30.2072 34.6227 29.344 34.6389 44.1991L34.654 58.0135H35.7356H36.8173L36.8572 45.331C36.8928 34.0413 36.9187 32.5814 37.0927 32.0374C37.3418 31.2587 37.7823 30.5415 38.2945 30.0808C38.7987 29.6272 39.9707 28.8757 40.1738 28.8757C40.2958 28.8757 40.3262 31.782 40.3262 43.4309V57.986L41.3467 58.0678C41.9081 58.1128 42.424 58.1159 42.4933 58.0747C42.5797 58.0233 42.6193 53.4298 42.6193 43.4425V28.8853L43.2346 29.2532C44.1837 29.8207 44.8273 30.4186 45.2021 31.0807C45.967 32.4327 45.926 31.6607 45.9677 45.5094L46.0057 58.1382L47.1184 58.1049L48.2311 58.0715L48.2618 43.996C48.2787 36.2545 48.3224 29.9204 48.359 29.9204C48.3955 29.9204 48.7505 30.1328 49.1479 30.3923C50.6402 31.3671 51.19 32.5007 51.8661 35.9964C52.0286 36.8367 52.2396 37.9159 52.3349 38.3948C53.4707 44.0991 53.9958 47.216 54.4666 51.0483C54.6853 52.8281 54.7313 53.842 54.7353 56.9687C54.7396 60.3718 54.7134 60.8894 54.4682 62.2503C54.0168 64.7546 53.6485 65.9267 52.7896 67.5907C51.2592 70.5559 48.8482 72.4448 45.5908 73.2305L44.5347 73.4854L44.6013 75.7039C44.638 76.9241 44.697 80.9262 44.7325 84.5974C44.7679 88.2687 44.8221 92.3956 44.8528 93.7683C44.8836 95.141 44.9432 99.0762 44.9854 102.513C45.0275 105.95 45.1032 108.719 45.1537 108.666C45.204 108.613 46.4475 105.883 47.917 102.599C49.3863 99.3146 50.6029 96.6141 50.6202 96.5974C50.6376 96.5806 51.515 96.4841 52.57 96.3827C55.8875 96.0638 57.3996 95.6633 59.9993 94.4148C64.687 92.1636 68.6245 89.4246 72.4368 85.7631C79.9878 78.5107 84.311 69.987 85.7161 59.5807C86.066 56.9897 86.0976 51.9463 85.7812 49.1909C85.4759 46.5311 85.0118 43.406 84.6779 41.7613C84.3292 40.0437 83.004 35.3504 82.3915 33.6641C80.8865 29.5209 78.1045 24.6677 75.3375 21.3589C74.4249 20.2676 73.3071 19.1694 73.2069 19.2657C73.1804 19.2913 73.2103 19.6225 73.2734 20.0018C73.3366 20.3811 73.5354 21.8408 73.7154 23.2454C74.01 25.544 74.0434 26.1882 74.0493 29.6883C74.0554 33.2829 74.0348 33.6826 73.7779 34.9702C73.1196 38.2685 72.121 40.6665 70.2472 43.4488C69.0599 45.2117 69.0999 45.2257 69.0007 43.0117C68.6716 35.6687 67.5388 31.5976 65.1938 29.329C63.6185 27.8049 62.214 27.3665 58.1877 27.1418C56.9597 27.0732 55.5477 26.9351 55.0499 26.835C50.9286 26.0059 48.9165 22.5489 48.2305 15.1193C47.9586 12.1744 48.009 6.10031 48.3423 1.62422L48.4136 0.666504L48.081 0.674167C47.8981 0.678346 47.4639 0.755426 47.1164 0.845509Z" fill="white"/>
</svg>
