<svg width="86" height="109" viewBox="0 0 86 109" fill="none" xmlns="http://www.w3.org/2000/svg">
<path fill-rule="evenodd" clip-rule="evenodd" d="M47.1165 0.845723C44.5232 1.51752 39.4094 3.80954 36.2446 5.71871C27.2498 11.1445 21.6707 18.1726 19.705 26.5541C19.3389 28.1152 19.208 28.9888 19.0298 31.0606C18.8967 32.6075 18.7908 33.205 18.5038 34.0312L18.1447 35.0653L17.9052 34.6116C17.7736 34.362 17.3279 33.4004 16.9149 32.4746C15.269 28.7852 13.6117 25.6969 12.0247 23.3617C10.888 21.6892 10.2376 20.8984 9.03423 19.7258C7.81614 18.5389 7.07115 17.9788 5.98402 17.4326L5.14646 17.0118L5.1082 17.3777C5.08708 17.5789 5.15333 18.6942 5.25531 19.8561C5.75145 25.5092 5.82073 32.4994 5.40811 35.2647C5.14368 37.0364 4.40158 40.5092 3.22586 45.4763C1.60107 52.3408 0.934647 56.0336 0.796945 58.9339C0.761946 59.6728 0.709804 60.5792 0.681202 60.9482C0.610118 61.8641 0.809976 64.8955 1.04314 66.4392C1.757 71.1652 3.72116 76.015 6.84571 80.7668C9.07369 84.155 11.442 86.7196 14.6203 89.1859C17.6894 91.5674 22.8267 94.1918 26.0854 95.0429C27.9387 95.527 31.6085 96.0755 34.5938 96.3147C35.4567 96.3837 36.472 96.4683 36.8502 96.5025L37.5377 96.5647L37.5995 96.1824C37.6335 95.9721 37.6913 94.2068 37.728 92.2594C37.7646 90.312 37.8207 87.9874 37.8525 87.0935C37.9545 84.232 38.027 81.7131 38.0949 78.6772C38.1312 77.0491 38.187 75.2204 38.2187 74.6134L38.2763 73.5098L37.2195 73.2484C35.2171 72.7531 33.2532 71.6645 31.9856 70.3476C27.782 65.9802 26.9655 57.9369 29.3546 44.4315C30.0287 40.6204 31.4037 33.8113 31.6507 33.0608C31.9789 32.0637 32.1671 31.7332 32.7588 31.1159C33.255 30.598 34.3662 29.9533 34.5152 30.0966C34.6303 30.2074 34.6229 29.3442 34.639 44.1994L34.6541 58.0137H35.7357H36.8174L36.8574 45.3312C36.893 34.0415 36.9188 32.5816 37.0928 32.0376C37.3419 31.2589 37.7824 30.5417 38.2946 30.081C38.7988 29.6274 39.9708 28.8759 40.1739 28.8759C40.2959 28.8759 40.3264 31.7822 40.3264 43.4311V57.9862L41.3469 58.0681C41.9082 58.113 42.4241 58.1161 42.4934 58.0749C42.5798 58.0235 42.6194 53.43 42.6194 43.4427V28.8855L43.2348 29.2534C44.1838 29.8209 44.8274 30.4188 45.2022 31.0809C45.9671 32.4329 45.9262 31.6609 45.9678 45.5096L46.0058 58.1384L47.1185 58.1051L48.2313 58.0718L48.2619 43.9962C48.2788 36.2547 48.3225 29.9207 48.3591 29.9207C48.3956 29.9207 48.7506 30.133 49.148 30.3925C50.6403 31.3673 51.1901 32.5009 51.8662 35.9967C52.0288 36.8369 52.2397 37.9161 52.3351 38.395C53.4708 44.0993 53.9959 47.2162 54.4667 51.0485C54.6854 52.8283 54.7314 53.8422 54.7354 56.9689C54.7397 60.372 54.7135 60.8897 54.4683 62.2505C54.0169 64.7548 53.6486 65.9269 52.7897 67.5909C51.2593 70.5561 48.8483 72.445 45.5909 73.2308L44.5348 73.4856L44.6014 75.7041C44.6381 76.9243 44.6971 80.9264 44.7326 84.5977C44.7681 88.2689 44.8223 92.3958 44.8529 93.7685C44.8837 95.1413 44.9433 99.0764 44.9855 102.513C45.0277 105.95 45.1033 108.719 45.1538 108.666C45.2041 108.613 46.4477 105.883 47.9171 102.599C49.3865 99.3148 50.603 96.6143 50.6204 96.5976C50.6377 96.5809 51.5151 96.4843 52.5702 96.3829C55.8876 96.064 57.3998 95.6635 59.9995 94.415C64.6871 92.1639 68.6246 89.4248 72.437 85.7633C79.9879 78.5109 84.3111 69.9872 85.7163 59.5809C86.0661 56.9899 86.0977 51.9465 85.7813 49.1911C85.476 46.5313 85.0119 43.4063 84.678 41.7615C84.3293 40.0439 83.0041 35.3506 82.3916 33.6643C80.8867 29.5211 78.1046 24.6679 75.3377 21.3591C74.425 20.2678 73.3072 19.1696 73.2071 19.266C73.1805 19.2915 73.2104 19.6227 73.2736 20.0021C73.3367 20.3813 73.5356 21.841 73.7155 23.2456C74.0101 25.5442 74.0435 26.1885 74.0494 29.6885C74.0555 33.2831 74.035 33.6828 73.778 34.9704C73.1197 38.2687 72.1211 40.6667 70.2474 43.449C69.0601 45.2119 69.1 45.2259 69.0008 43.0119C68.6717 35.6689 67.5389 31.5978 65.1939 29.3292C63.6186 27.8051 62.2142 27.3667 58.1878 27.142C56.9599 27.0734 55.5478 26.9354 55.05 26.8352C50.9287 26.0061 48.9166 22.5491 48.2307 15.1196C47.9588 12.1747 48.0091 6.10052 48.3424 1.62444L48.4137 0.666718L48.0811 0.67438C47.8982 0.67856 47.4641 0.755639 47.1165 0.845723Z" fill="white"/>
</svg>
